<?xml version="1.0" standalone="yes"?>
<svg xmlns="http://www.w3.org/2000/svg" width="225" height="225">
<path style="fill:#fefefe; stroke:none;" d="M0 0L0 225L225 225L225 0L0 0z"/>
<path style="fill:#97a6bd; stroke:none;" d="M5 178C-0.649736 154.27 4 124.408 4 100L16 100C12.9381 98.7152 5.44997 97.5652 3.60339 101.318C1.51407 105.564 3 113.347 3 118L3 158C3 163.217 0.873487 174.394 5 178M30 99L30 100L64 100L30 99M90 101L120 100C114.685 97.7696 93.8587 96.5842 90 101M180 99L180 100L183 100L180 99z"/>
<path style="fill:#0c2f84; stroke:none;" d="M183 99.439C139.449 106.291 150.69 169.381 194 162.561C236.22 155.912 225.127 92.8107 183 99.439z"/>
<path style="fill:#97a6bd; stroke:none;" d="M193 99L193 100L196 100L193 99z"/>
<path style="fill:#ea0726; stroke:none;" d="M4 100L4 177L15.3966 167.91L16 147L16 100L4 100z"/>
<path style="fill:#0c2f84; stroke:none;" d="M30 100C35.984 116.419 32 139.603 32 157C44.8549 152.738 45 144.788 45 133C51.5479 133.001 60.1556 132.643 65.9815 136.09C72.491 139.94 72.3606 147.192 65.9815 151.142C60.2625 154.683 53.1842 151.914 47 153.303C42.2783 154.364 37.9492 158.335 34 161L34 162C46.8978 162 65.6495 165.46 76.9568 158.005C90.1282 149.322 83.531 130.278 69 129C78.8175 121.759 84.2538 106.803 68.9961 101.133C58.0124 97.052 41.6405 100 30 100z"/>
<path style="fill:#97a6bd; stroke:none;" d="M67.6667 100.333L68.3333 100.667L67.6667 100.333z"/>
<path style="fill:#0c2f84; stroke:none;" d="M91 100L93 157C110.752 148.169 105 126.183 105 109C111.787 109 118.918 108.643 124.999 112.228C136.715 119.134 139.389 136.913 129.787 146.815C122.885 153.933 115.487 151.397 107 153.303C102.197 154.382 98.1139 158.461 94 161C105.15 165.679 128.596 163.166 137.985 155.61C151.249 144.935 151.982 120.15 139.815 108.301C127.434 96.2443 106.748 100 91 100z"/>
<path style="fill:#97a6bd; stroke:none;" d="M124.667 100.333L125.333 100.667L124.667 100.333M176.667 100.333L177.333 100.667L176.667 100.333M198.667 100.333L199.333 100.667L198.667 100.333M30 101L31 102L30 101M70 101L71 102L70 101M128 101L129 102L128 101M173.667 101.333L174.333 101.667L173.667 101.333M201.667 101.333L202.333 101.667L201.667 101.333M72 102L73 103L72 102M131 102L132 103L131 102M171 102L172 103L171 102M204 102L205 103L204 102M31 103L32 104L31 103M73 103L74 104L73 103M91 103L92 104L91 103M133 103L134 104L133 103M169 103L170 104L169 103M206 103L207 104L206 103M75 105L76 106L75 105M92 105L92 158L93 158L93 122L92 105M136 105L137 106L136 105M166 105L167 106L166 105M209 105L210 106L209 105M76 106L77 107L76 106M137 106L138 107L137 106M77 108L78 109L77 108M184 108L184 109L192 109L184 108M45 109L45 110L62 110L45 109M105 109L105 110L118 110L105 109M181 109L182 110L181 109z"/>
<path style="fill:#fefefe; stroke:none;" d="M182 109.533C157.492 115.49 166.83 159.447 193 152.955C218.664 146.589 209.498 102.85 182 109.533z"/>
<path style="fill:#97a6bd; stroke:none;" d="M194 109L195 110L194 109z"/>
<path style="fill:#fefefe; stroke:none;" d="M45 110L45 125C50.3924 125 57.1935 126.086 61.9414 122.991C65.5683 120.626 67.9254 114.179 63.5664 111.179C59.2771 108.227 50.0154 110 45 110z"/>
<path style="fill:#97a6bd; stroke:none;" d="M63 110L64 111L63 110M78 110L79 111L78 110M120.667 110.333L121.333 110.667L120.667 110.333M178 110L179 111L178 110M197 110L198 111L197 110M123.667 111.333L124.333 111.667L123.667 111.333M142 111L143 112L142 111M160 111L161 112L160 111M215 111L216 112L215 111M65 112L66 113L65 112M143 112L144 113L143 112M159 112L160 113L159 112M175 112L176 113L175 112M200 112L201 113L200 112M216 112L217 113L216 112M127 113L128 114L127 113M174 113L175 114L174 113M201 113L202 114L201 113M66 114L66 118L67 118L66 114M128 114L129 115L128 114M144 114L145 115L144 114M158 114L159 115L158 114M173 114L174 115L173 114M202 114L203 115L202 114M217 114L218 115L217 114M172 115L173 116L172 115M203 115L204 116L203 115M145 116L146 117L145 116M157 116L158 117L157 116M218 116L219 117L218 116M131 117L132 118L131 117M78 118L79 119L78 118M146 118L147 119L146 118M156 118L157 119L156 118M170 118L171 119L170 118M205 118L206 119L205 118M219.333 118.667L219.667 119.333L219.333 118.667M65 120L66 121L65 120M133 120L134 121L133 120M169 120L170 121L169 120M206.333 120.667L206.667 121.333L206.333 120.667M64 121L65 122L64 121M77 121L78 122L77 121M147.333 121.667L147.667 122.333L147.333 121.667M155.333 121.667L155.667 122.333L155.333 121.667M63 122L64 123L63 122M220 122L221 123L220 122M61 123L62 124L61 123M134.333 123.667L134.667 124.333L134.333 123.667M168.333 123.667L168.667 124.333L168.333 123.667M59 124L60 125L59 124M207.333 124.667L207.667 125.333L207.333 124.667M148 125L148 137L149 137L148 125M72 126L73 127L72 126M70 127L69 129L71 129L70 127M154 127L154 135L155 135L154 127M135 128L135 134L136 134L135 128M221 128L221 135L222 135L221 128M73.6667 129.333L74.3333 129.667L73.6667 129.333M76 130L77 131L76 130M45 133L45 134L56 134L45 133M80 133L81 134L80 133M61.6667 134.333L62.3333 134.667L61.6667 134.333M65 135L66 136L65 135M67 136L68 137L67 136M82 136L83 137L82 136M68 137L69 138L68 137M168.333 137.667L168.667 138.333L168.333 137.667M207.333 137.667L207.667 138.333L207.333 137.667M83.3333 138.667L83.6667 139.333L83.3333 138.667M134.333 138.667L134.667 139.333L134.333 138.667M70 139L71 140L70 139M155.333 139.667L155.667 140.333L155.333 139.667M220.333 139.667L220.667 140.333L220.333 139.667M147.333 140.667L147.667 141.333L147.333 140.667M133 141L134 142L133 141M169 141L170 142L169 141M206 141L207 142L206 141M71 142L71 145L72 145L71 142M132 143L133 144L132 143M146.333 143.667L146.667 144.333L146.333 143.667M156 143L157 144L156 143M170 143L171 144L170 143M205 143L206 144L205 143M219 143L220 144L219 143M131 145L132 146L131 145M157 145L158 146L157 145M171 145L172 146L171 145M218 145L219 146L218 145M130 146L131 147L130 146M145 146L146 147L145 146M172 146L173 147L172 146M203 146L204 147L203 146M70 147L71 148L70 147M129 147L130 148L129 147M158 147L159 148L158 147M173 147L174 148L173 147M202 147L203 148L202 147M217 147L218 148L217 147M83.3333 148.667L83.6667 149.333L83.3333 148.667M128 148L129 149L128 148M144 148L145 149L144 148M174 148L175 149L174 148M201 148L202 149L201 148M44 149L45 150L44 149M104 149L105 150L104 149M143 149L144 150L143 149M159 149L160 150L159 149M175 149L176 150L175 149M200 149L201 150L200 149M216 149L217 150L216 149M125 150L126 151L125 150M176 150L177 151L176 150M199 150L200 151L199 150M215 150L216 151L215 150M41 151L42 152L41 151M65.6667 151.333L66.3333 151.667L65.6667 151.333M82 151L83 152L82 151M101 151L102 152L101 151M122.667 151.333L123.333 151.667L122.667 151.333M178 151L179 152L178 151M197 151L198 152L197 151M40 152L41 153L40 152M60 152L60 153L64 153L60 152M100 152L101 153L100 152M117 152L117 153L120 153L117 152M141 152L142 153L141 152M180 152L181 153L180 152M195 152L196 153L195 152M38 153L39 154L38 153M81 153L82 154L81 153M98 153L99 154L98 153M140 153L141 154L140 153M162 153L163 154L162 153M183 153L183 154L186 154L183 153M190 153L190 154L193 154L190 153M37 154L38 155L37 154M43 154L44 155L43 154M97 154L98 155L97 154M103 154L104 155L103 154M139 154L140 155L139 154M163 154L164 155L163 154M42 155L43 156L42 155M102 155L103 156L102 155M138 155L139 156L138 155M34 156L35 157L34 156M40 156L41 157L40 156M94 156L95 157L94 156M166 156L167 157L166 156M209 156L210 157L209 156M32 157L33 158L32 157M39 157L40 158L39 157M99 157L100 158L99 157M135 157L136 158L135 157M167 157L168 158L167 157M208 157L209 158L208 157M76 158L77 159L76 158M133 158L134 159L133 158M169 158L170 159L169 158M206 158L207 159L206 158M36 159L37 160L36 159M74 159L75 160L74 159M96 159L97 160L96 159M131 159L132 160L131 159M171 159L172 160L171 159M204 159L205 160L204 159M71.6667 160.333L72.3333 160.667L71.6667 160.333M95 160L96 161L95 160M129 160L130 161L129 160M173 160L174 161L173 160M202 160L203 161L202 160M32 162L32 163L64 163C56.1471 159.705 40.4822 161.068 32 162M68.6667 161.333L69.3333 161.667L68.6667 161.333M92 162L92 163L122 163L92 162M125.667 161.333L126.333 161.667L125.667 161.333M176 161L177 162L176 161M199 161L200 162L199 161M179.667 162.333L180.333 162.667L179.667 162.333M194 162L194 163L197 163L194 162z"/>
<path style="fill:#cf6270; stroke:none;" d="M15 169L16 170L15 169M14 170L15 171L14 170M12 171L13 172L12 171M11 172L12 173L11 172M18 172L18 173L220 173L220 182L57 182L19 182C14.698 182 6.17356 183.306 7 180L4 183L221 183L221 172L18 172z"/>
<path style="fill:#97a6bd; stroke:none;" d="M10 173L11 174L10 173z"/>
<path style="fill:#cf6270; stroke:none;" d="M16 173L15 175L16 173z"/>
<path style="fill:#ea0726; stroke:none;" d="M6 181L6 182L220 182L220 173L71 173C49.5104 173 23.9956 168.111 6 181z"/>
<path style="fill:#cf6270; stroke:none;" d="M8 174L9 175L8 174z"/>
<path style="fill:#97a6bd; stroke:none;" d="M7 175L8 176L7 175M13 175L14 176L13 175z"/>
<path style="fill:#cf6270; stroke:none;" d="M5 176L6 177L5 176M12 176L13 177L12 176z"/>
<path style="fill:#97a6bd; stroke:none;" d="M10 177L11 178L10 177z"/>
<path style="fill:#cf6270; stroke:none;" d="M9 178L10 179L9 178M8 179L9 180L8 179z"/>
</svg>
