<?xml version="1.0" standalone="yes"?>
<svg xmlns="http://www.w3.org/2000/svg" width="225" height="225">
<path style="fill:#fefefe; stroke:none;" d="M0 0L0 225L225 225L225 0L0 0z"/>
<path style="fill:#679dd2; stroke:none;" d="M110.667 30.3333L111.333 30.6667L110.667 30.3333z"/>
<path style="fill:#036abe; stroke:none;" d="M79 107C77.4181 115.649 82.1307 127.197 92.9606 121.543C100.11 117.811 108.776 105.233 112 98C133.481 109.3 173.74 107.546 172.871 74C172.393 55.5357 159.1 50.8029 146 42.3156C137.246 36.644 129.913 30.8383 119 30.091C103.547 29.0328 97.9462 39.5029 86.8302 47.2616C75.764 54.9856 61.4089 61.8846 54.6844 75C45.7115 92.5006 62.3517 106.862 79 107z"/>
<path style="fill:#679dd2; stroke:none;" d="M122.667 30.3333L123.333 30.6667L122.667 30.3333M107 31L108 32L107 31M126.667 31.3333L127.333 31.6667L126.667 31.3333M104 32L105 33L104 32M130 32L131 33L130 32M102 33L103 34L102 33M132 33L133 34L132 33M134 34L135 35L134 34M99 35L100 36L99 35M136 35L137 36L136 35M96 37L97 38L96 37M139 37L140 38L139 37M95 38L96 39L95 38M94 39L95 40L94 39M142 39L143 40L142 39M93 40L94 41L93 40M143 40L144 41L143 40M92 41L93 42L92 41M144 41L145 42L144 41M91 42L92 43L91 42M145 42L146 43L145 42M90 43L91 44L90 43M147.667 43.3333L148.333 43.6667L147.667 43.3333M150 44L151 45L150 44M152.667 45.3333L153.333 45.6667L152.667 45.3333M88 46L89 47L88 46M155 46L156 47L155 46M87 47L88 48L87 47M83 48L83 49L86 49L83 48M132 48L133 49L132 48z"/>
<path style="fill:#fefefe; stroke:none;" d="M87 117L117 81C118.936 85.9911 120.093 92.9776 126 94C125.713 87.7165 121.832 81.2114 122.452 75C123.3 66.5046 135.554 58.191 143 56C137.241 36.7861 124.973 59.1004 116.873 60.3688C113.259 60.9349 109.538 51.6367 105.886 57.3225C102.852 62.0454 111.556 66.5672 109.613 72C104.446 86.4409 82.6313 99.6632 87 117z"/>
<path style="fill:#679dd2; stroke:none;" d="M138 48L139 49L138 48M158 48L159 49L158 48M80 49L81 50L80 49M130 49L131 50L130 49M78 50L79 51L78 50M128 50L129 51L128 50M161 50L162 51L161 50M76 51L77 52L76 51M127 51L128 52L127 51M141 51L142 52L141 51M162 51L163 52L162 51M75 52L76 53L75 52M126 52L127 53L126 52M163 52L164 53L163 52M142 53L143 54L142 53M164 53L165 54L164 53M165 54L166 55L165 54M143 55L140 56L140 57L143 55M166 55L167 56L166 55M70 57L71 58L70 57M112 57L113 58L112 57M69 58L70 59L69 58M104 58L105 59L104 58M136 58L137 59L136 58M168 58L169 59L168 58M113 59L114 60L113 59M68 60L69 61L68 60M104 60L105 61L104 60M118 60L119 61L118 60M133 60L134 61L133 60M169 60L170 61L169 60M105 61L106 62L105 61M117 61L118 62L117 61M132 61L133 62L132 61M67 62L68 63L67 62M106 62L107 63L106 62M131 62L132 63L131 62M170 62L171 63L170 62M130 63L131 64L130 63M65 64L66 65L65 64M129 64L130 65L129 64M63 65L64 66L63 65M171 65L172 66L171 65M62 66L63 67L62 66M109 66L110 67L109 66M126 67L127 68L126 67M59 68L60 69L59 68M110 68L110 72L111 72L110 68M125 68L126 69L125 68M172.333 68.6667L172.667 69.3333L172.333 68.6667M58 69L59 70L58 69M124 69L125 70L124 69M57 70L58 71L57 70z"/>
<path style="fill:#6a7580; stroke:none;" d="M172 70L173 71L172 70z"/>
<path style="fill:#679dd2; stroke:none;" d="M122 72L123 73L122 72M55 73L56 74L55 73M108 74L109 75L108 74z"/>
<path style="fill:#6a7580; stroke:none;" d="M122 75L123 76L122 75z"/>
<path style="fill:#679dd2; stroke:none;" d="M122.333 76.6667L122.667 77.3333L122.333 76.6667M53 77L54 78L53 77M106 77L107 78L106 77M105 78L106 79L105 78z"/>
<path style="fill:#6a7580; stroke:none;" d="M172 78L173 79L172 78z"/>
<path style="fill:#679dd2; stroke:none;" d="M172.333 79.6667L172.667 80.3333L172.333 79.6667M52.3333 80.6667L52.6667 81.3333L52.3333 80.6667z"/>
<path style="fill:#6a7580; stroke:none;" d="M123 80L124 81L123 80z"/>
<path style="fill:#679dd2; stroke:none;" d="M103 81L104 82L103 81M123 81L124 82L123 81z"/>
<path style="fill:#6a7580; stroke:none;" d="M102 82L103 83L102 82z"/>
<path style="fill:#679dd2; stroke:none;" d="M117 82L118 83L117 82M171 83L172 84L171 83M118 84L119 85L118 84M124.333 84.6667L124.667 85.3333L124.333 84.6667M100 85L101 86L100 85z"/>
<path style="fill:#6a7580; stroke:none;" d="M109 87L110 88L109 87M119 87L120 88L119 87M125 87L126 88L125 87z"/>
<path style="fill:#679dd2; stroke:none;" d="M52.3333 88.6667L52.6667 89.3333L52.3333 88.6667M98 88L99 89L98 88M108 88L109 89L108 88M125 88L126 89L125 88z"/>
<path style="fill:#6a7580; stroke:none;" d="M97 89L98 90L97 89z"/>
<path style="fill:#679dd2; stroke:none;" d="M107 89L108 90L107 89M120.333 89.6667L120.667 90.3333L120.333 89.6667M168 89L169 90L168 89M96 91L97 92L96 91z"/>
<path style="fill:#6a7580; stroke:none;" d="M126 91L127 92L126 91z"/>
<path style="fill:#679dd2; stroke:none;" d="M53 92L54 93L53 92M95 92L96 93L95 92M121 92L122 93L121 92M126.333 92.6667L126.667 93.3333L126.333 92.6667M166 92L167 93L166 92M104 93L105 94L104 93M165 93L166 94L165 93M54 94L55 95L54 94M94 94L95 95L94 94M103 94L104 95L103 94z"/>
<path style="fill:#6a7580; stroke:none;" d="M123 94L124 95L123 94z"/>
<path style="fill:#679dd2; stroke:none;" d="M124 94L125 95L124 94M164 94L165 95L164 94z"/>
<path style="fill:#6a7580; stroke:none;" d="M93 95L94 96L93 95z"/>
<path style="fill:#679dd2; stroke:none;" d="M163 95L164 96L163 95M162 96L163 97L162 96M56 97L57 98L56 97M92 97L93 98L92 97M101 97L102 98L101 97M57 98L58 99L57 98M112 98L113 99L112 98z"/>
<path style="fill:#6a7580; stroke:none;" d="M113 98L114 99L113 98z"/>
<path style="fill:#679dd2; stroke:none;" d="M58 99L59 100L58 99M91 99L92 100L91 99M114 99L115 100L114 99M158 99L159 100L158 99M59 100L60 101L59 100M99 100L100 101L99 100M116 100L117 101L116 100z"/>
<path style="fill:#6a7580; stroke:none;" d="M156 100L157 101L156 100z"/>
<path style="fill:#679dd2; stroke:none;" d="M60 101L61 102L60 101z"/>
<path style="fill:#6a7580; stroke:none;" d="M118 101L119 102L118 101z"/>
<path style="fill:#679dd2; stroke:none;" d="M155 101L156 102L155 101z"/>
<path style="fill:#6a7580; stroke:none;" d="M89 102L90 103L89 102z"/>
<path style="fill:#679dd2; stroke:none;" d="M109 102L110 103L109 102M120 102L121 103L120 102z"/>
<path style="fill:#6a7580; stroke:none;" d="M152 102L153 103L152 102z"/>
<path style="fill:#679dd2; stroke:none;" d="M153 102L154 103L153 102M63 103L64 104L63 103M97 103L98 104L97 103z"/>
<path style="fill:#6a7580; stroke:none;" d="M108 103L109 104L108 103z"/>
<path style="fill:#679dd2; stroke:none;" d="M123 103L124 104L123 103M150 103L151 104L150 103M65 104L66 105L65 104z"/>
<path style="fill:#6a7580; stroke:none;" d="M88 104L89 105L88 104z"/>
<path style="fill:#679dd2; stroke:none;" d="M126 104L127 105L126 104z"/>
<path style="fill:#6a7580; stroke:none;" d="M146 104L147 105L146 104z"/>
<path style="fill:#679dd2; stroke:none;" d="M147 104L148 105L147 104M67 105L68 106L67 105z"/>
<path style="fill:#6a7580; stroke:none;" d="M96 105L97 106L96 105z"/>
<path style="fill:#679dd2; stroke:none;" d="M130.667 105.333L131.333 105.667L130.667 105.333z"/>
<path style="fill:#6a7580; stroke:none;" d="M132 105L133 106L132 105M141 105L142 106L141 105z"/>
<path style="fill:#679dd2; stroke:none;" d="M142.667 105.333L143.333 105.667L142.667 105.333M70.6667 106.333L71.3333 106.667L70.6667 106.333M95 106L96 107L95 106M106 106L107 107L106 106M74 107L74 108L78 110L74 107z"/>
<path style="fill:#6a7580; stroke:none;" d="M78 107L79 108L78 107z"/>
<path style="fill:#679dd2; stroke:none;" d="M87 107L88 108L87 107M105 107L106 108L105 107z"/>
<path style="fill:#6a7580; stroke:none;" d="M94 108L95 109L94 108M104 108L105 109L104 108z"/>
<path style="fill:#679dd2; stroke:none;" d="M93 109L94 110L93 109M86.3333 110.667L86.6667 111.333L86.3333 110.667M92 111L93 112L92 111M102 111L103 112L102 111M101 112L102 113L101 112z"/>
<path style="fill:#6a7580; stroke:none;" d="M100 113L101 114L100 113z"/>
<path style="fill:#679dd2; stroke:none;" d="M90 114L91 115L90 114M78 115L79 116L78 115M89 115L90 116L89 115z"/>
<path style="fill:#6a7580; stroke:none;" d="M86 116L87 117L86 116z"/>
<path style="fill:#679dd2; stroke:none;" d="M88 116L89 117L88 116M98 116L99 117L98 116M97 117L98 118L97 117M79 118L80 119L79 118z"/>
<path style="fill:#6a7580; stroke:none;" d="M172 119L172 142L173 142L172 119z"/>
<path style="fill:#121212; stroke:none;" d="M173 119L173 142L174 142L173 119z"/>
<path style="fill:#679dd2; stroke:none;" d="M174 119L175 120L174 119z"/>
<path style="fill:#6a7580; stroke:none;" d="M174 120L174 142L175 142L174 120z"/>
<path style="fill:#679dd2; stroke:none;" d="M82 121L83 122L82 121z"/>
<path style="fill:#6a7580; stroke:none;" d="M93 121L94 122L93 121M84 122L85 123L84 122z"/>
<path style="fill:#679dd2; stroke:none;" d="M91 122L92 123L91 122M57 125L58 126L57 125M72 125L73 126L72 125M92 125L93 126L92 125M110 125L111 126L110 125M144 125L145 126L144 125M159 125L160 126L159 125M53 126L54 127L53 126z"/>
<path style="fill:#121212; stroke:none;" d="M61 141L61 140C50.2523 139.65 50.2887 127.563 61 128C52.8992 118.743 42.9322 145.904 61 141z"/>
<path style="fill:#679dd2; stroke:none;" d="M68 126L69 127L68 126z"/>
<path style="fill:#121212; stroke:none;" d="M69.1335 127.032C61.2195 131.461 67.4077 145.789 75.7716 140.817C82.8129 136.632 77.5326 122.331 69.1335 127.032z"/>
<path style="fill:#6a7580; stroke:none;" d="M75 126L76 127L75 126z"/>
<path style="fill:#121212; stroke:none;" d="M85 126L85 142L87 142C87 126.279 96 126.097 96 142L98 142C98 137.819 99.8819 128.24 95 126.333C91.5618 124.99 88.4052 127.095 85 126z"/>
<path style="fill:#6a7580; stroke:none;" d="M89 126L90 127L89 126M95 126L96 127L95 126z"/>
<path style="fill:#679dd2; stroke:none;" d="M106 126L107 127L106 126z"/>
<path style="fill:#121212; stroke:none;" d="M116 139C110.47 140.251 107.872 138.822 105 134L116 134C115.486 127.204 106.567 122.254 104.319 131.019C102.446 138.318 110.715 146.48 116 139z"/>
<path style="fill:#679dd2; stroke:none;" d="M113 126L114 127L113 126z"/>
<path style="fill:#6a7580; stroke:none;" d="M120 126L121 127L120 126z"/>
<path style="fill:#121212; stroke:none;" d="M121 126C124.254 133.783 124.247 134.546 120 142L126 135L133 142C130.121 134.384 129.292 133.478 133 126L128 132L126 132L121 126z"/>
<path style="fill:#679dd2; stroke:none;" d="M133 126L134 127L133 126z"/>
<path style="fill:#6a7580; stroke:none;" d="M141 126L142 127L141 126z"/>
<path style="fill:#121212; stroke:none;" d="M148 141L148 140C138.163 139.256 137.823 127.583 148 128C140.209 119.132 130.764 145.681 148 141z"/>
<path style="fill:#6a7580; stroke:none;" d="M148 126L149 127L148 126M156 126L157 127L156 126z"/>
<path style="fill:#121212; stroke:none;" d="M157.109 126.747C149.485 129.866 153.539 144.119 161.945 141.214C170.617 138.217 166.167 123.041 157.109 126.747z"/>
<path style="fill:#679dd2; stroke:none;" d="M163 126L164 127L163 126z"/>
<path style="fill:#6a7580; stroke:none;" d="M52 127L53 128L52 127M57 127L58 128L57 127M67 127L68 128L67 127M71 127L71 128L74 128L71 127z"/>
<path style="fill:#679dd2; stroke:none;" d="M77 127L78 128L77 127M87 127L88 128L87 127z"/>
<path style="fill:#6a7580; stroke:none;" d="M91.6667 127.333L92.3333 127.667L91.6667 127.333M105 127L106 128L105 127M109.667 127.333L110.333 127.667L109.667 127.333M114 127L115 128L114 127M132 127L133 128L132 127z"/>
<path style="fill:#679dd2; stroke:none;" d="M139 127L140 128L139 127z"/>
<path style="fill:#6a7580; stroke:none;" d="M144 127L145 128L144 127z"/>
<path style="fill:#679dd2; stroke:none;" d="M148 127L149 128L148 127M154 127L155 128L154 127z"/>
<path style="fill:#6a7580; stroke:none;" d="M159.667 127.333L160.333 127.667L159.667 127.333M164 127L165 128L164 127M51 128L52 129L51 128z"/>
<path style="fill:#679dd2; stroke:none;" d="M54 128L55 129L54 128M60 128L61 129L60 128M66 128L67 129L66 128M69 128L70 129L69 128z"/>
<path style="fill:#fefefe; stroke:none;" d="M70.314 129.047C65.685 131.922 68.8228 142.45 74.5671 138.802C79.1728 135.877 75.9478 125.548 70.314 129.047z"/>
<path style="fill:#6a7580; stroke:none;" d="M75 128L76 129L75 128z"/>
<path style="fill:#679dd2; stroke:none;" d="M94 128L95 129L94 128z"/>
<path style="fill:#6a7580; stroke:none;" d="M97 128L98 129L97 128z"/>
<path style="fill:#679dd2; stroke:none;" d="M104 128L105 129L104 128M107 128L108 129L107 128z"/>
<path style="fill:#fefefe; stroke:none;" d="M106 132L114 132C111.67 127.792 108.33 127.792 106 132z"/>
<path style="fill:#679dd2; stroke:none;" d="M112 128L113 129L112 128M115 128L116 129L115 128M124 128L125 129L124 128z"/>
<path style="fill:#6a7580; stroke:none;" d="M129 128L130 129L129 128M141 128L142 129L141 128z"/>
<path style="fill:#679dd2; stroke:none;" d="M147 128L148 129L147 128z"/>
<path style="fill:#6a7580; stroke:none;" d="M156 128L157 129L156 128z"/>
<path style="fill:#fefefe; stroke:none;" d="M157.433 129.047C152.833 131.968 156.03 142.293 161.686 138.928C166.383 136.134 163.079 125.462 157.433 129.047z"/>
<path style="fill:#679dd2; stroke:none;" d="M162 128L163 129L162 128z"/>
<path style="fill:#6a7580; stroke:none;" d="M165 128L166 129L165 128M53 129L54 130L53 129M68 129L69 130L68 129M78 129L79 130L78 129M95 129L96 130L95 129M106 129L107 130L106 129M113 129L114 130L113 129z"/>
<path style="fill:#679dd2; stroke:none;" d="M122 129L123 130L122 129M128 129L129 130L128 129z"/>
<path style="fill:#6a7580; stroke:none;" d="M153 129L154 130L153 129z"/>
<path style="fill:#679dd2; stroke:none;" d="M163 129L164 130L163 129M50 130L51 131L50 130M65 130L66 131L65 130M76 130L77 131L76 130z"/>
<path style="fill:#6a7580; stroke:none;" d="M87 130L88 131L87 130z"/>
<path style="fill:#679dd2; stroke:none;" d="M95 130L96 131L95 130M116.333 130.667L116.667 131.333L116.333 130.667z"/>
<path style="fill:#6a7580; stroke:none;" d="M123 130L124 131L123 130M130 130L131 131L130 130z"/>
<path style="fill:#679dd2; stroke:none;" d="M140 130L141 131L140 130M155 130L156 131L155 130M166 130L167 131L166 130z"/>
<path style="fill:#6a7580; stroke:none;" d="M52.3333 131.667L52.6667 132.333L52.3333 131.667M65 131L66 132L65 131M67 131L67 136L68 136L67 131z"/>
<path style="fill:#679dd2; stroke:none;" d="M79 131L80 132L79 131M87.3333 131.667L87.6667 132.333L87.3333 131.667z"/>
<path style="fill:#6a7580; stroke:none;" d="M103 131L103 137L104 137L103 131M126.667 131.333L127.333 131.667L126.667 131.333M129 131L130 132L129 131z"/>
<path style="fill:#679dd2; stroke:none;" d="M137 131L138 132L137 131M152 131L152 136L153 136L152 131z"/>
<path style="fill:#6a7580; stroke:none;" d="M164 131L165 132L164 131M79 132L79 135L80 135L79 132M106 132L106 133L114 133L106 132M116.333 132.667L116.667 133.333L116.333 132.667M137 132L137 136L138 136L137 132z"/>
<path style="fill:#679dd2; stroke:none;" d="M164 132L164 135L165 135L164 132M52.3333 133.667L52.6667 134.333L52.3333 133.667z"/>
<path style="fill:#6a7580; stroke:none;" d="M77 133L78 134L77 133M125 133L126 134L125 133z"/>
<path style="fill:#679dd2; stroke:none;" d="M128 133L129 134L128 133z"/>
<path style="fill:#6a7580; stroke:none;" d="M139.333 133.667L139.667 134.333L139.333 133.667M105 134L106 135L105 134M52.3333 135.667L52.6667 136.333L52.3333 135.667z"/>
<path style="fill:#679dd2; stroke:none;" d="M79.3333 135.667L79.6667 136.333L79.3333 135.667z"/>
<path style="fill:#6a7580; stroke:none;" d="M124 135L125 136L124 135M126 135L127 136L126 135M129 135L130 136L129 135M164.333 135.667L164.667 136.333L164.333 135.667M50 136L51 137L50 136M65 136L66 137L65 136z"/>
<path style="fill:#679dd2; stroke:none;" d="M123 136L124 137L123 136M137 136L138 137L137 136z"/>
<path style="fill:#6a7580; stroke:none;" d="M166 136L167 137L166 136z"/>
<path style="fill:#679dd2; stroke:none;" d="M50 137L51 138L50 137M76 137L77 138L76 137M106 137L107 138L106 137M125 137L126 138L125 137z"/>
<path style="fill:#6a7580; stroke:none;" d="M128 137L129 138L128 137z"/>
<path style="fill:#679dd2; stroke:none;" d="M140 137L141 138L140 137z"/>
<path style="fill:#6a7580; stroke:none;" d="M155 137L156 138L155 137z"/>
<path style="fill:#679dd2; stroke:none;" d="M166 137L167 138L166 137z"/>
<path style="fill:#6a7580; stroke:none;" d="M53 138L54 139L53 138M78 138L79 139L78 138M104 138L105 139L104 138M124 138L125 139L124 138M131 138L132 139L131 138M138 138L139 139L138 138z"/>
<path style="fill:#679dd2; stroke:none;" d="M153 138L154 139L153 138z"/>
<path style="fill:#6a7580; stroke:none;" d="M163 138L164 139L163 138z"/>
<path style="fill:#679dd2; stroke:none;" d="M51 139L52 140L51 139z"/>
<path style="fill:#6a7580; stroke:none;" d="M54 139L55 140L54 139M60 139L61 140L60 139z"/>
<path style="fill:#679dd2; stroke:none;" d="M74 139L75 140L74 139M108 139L109 140L108 139z"/>
<path style="fill:#6a7580; stroke:none;" d="M114 139L115 140L114 139M121 139L122 140L121 139z"/>
<path style="fill:#679dd2; stroke:none;" d="M132 139L133 140L132 139M142 139L143 140L142 139M147.667 139.333L148.333 139.667L147.667 139.333z"/>
<path style="fill:#6a7580; stroke:none;" d="M154 139L155 140L154 139z"/>
<path style="fill:#679dd2; stroke:none;" d="M157 139L158 140L157 139z"/>
<path style="fill:#6a7580; stroke:none;" d="M162 139L163 140L162 139z"/>
<path style="fill:#679dd2; stroke:none;" d="M165 139L166 140L165 139M52 140L53 141L52 140M120 140L121 141L120 140M123 140L124 141L123 140M130 140L131 141L130 140z"/>
<path style="fill:#6a7580; stroke:none;" d="M148 140L149 141L148 140M155 140L156 141L155 140z"/>
<path style="fill:#679dd2; stroke:none;" d="M164 140L165 141L164 140z"/>
<path style="fill:#6a7580; stroke:none;" d="M54 141L55 142L54 141M60 141L61 142L60 141z"/>
<path style="fill:#679dd2; stroke:none;" d="M69 141L70 142L69 141M75 141L76 142L75 141M107 141L108 142L107 141z"/>
<path style="fill:#6a7580; stroke:none;" d="M114 141L115 142L114 141M122 141L123 142L122 141M131 141L132 142L131 141M133 141L134 142L133 141z"/>
<path style="fill:#679dd2; stroke:none;" d="M141 141L142 142L141 141z"/>
<path style="fill:#6a7580; stroke:none;" d="M147 141L148 142L147 141z"/>
<path style="fill:#679dd2; stroke:none;" d="M156 141L157 142L156 141z"/>
<path style="fill:#6a7580; stroke:none;" d="M157 141L158 142L157 141M162 141L163 142L162 141z"/>
<path style="fill:#679dd2; stroke:none;" d="M76 147L76 181L77 181L76 147z"/>
<path style="fill:#036abe; stroke:none;" d="M77 147L77 181L83 181L83 147L77 147z"/>
<path style="fill:#679dd2; stroke:none;" d="M83 147L83 181L84 181L83 147z"/>
<path style="fill:#036abe; stroke:none;" d="M168 147L168 159C147.612 146.567 146.53 191.869 169 178C169.729 181.403 171.806 180.987 175 181L174 147L168 147z"/>
<path style="fill:#679dd2; stroke:none;" d="M174 147L174 180L175 180L174 147M58.6667 156.333L59.3333 156.667L58.6667 156.333z"/>
<path style="fill:#036abe; stroke:none;" d="M69 175C53.7034 177.828 54.7495 159.119 68 163L70 158C57.4819 153.313 42.4685 166.808 53.6528 178.427C58.3825 183.341 68.4344 182.259 69 175z"/>
<path style="fill:#679dd2; stroke:none;" d="M65.6667 156.333L66.3333 156.667L65.6667 156.333M99.6667 156.333L100.333 156.667L99.6667 156.333z"/>
<path style="fill:#036abe; stroke:none;" d="M101 156.559C85 158.484 89.5271 183.765 105.999 180.772C119.594 178.301 115.306 154.837 101 156.559z"/>
<path style="fill:#679dd2; stroke:none;" d="M104 156L104 157L107 157L104 156M122 156L122 157L128 157L128 173C130.812 166.297 130.555 156.281 122 156M137 172L138 172L138 157L144 157L144 181C145.967 176.313 146.705 163.002 144.397 158.318C140.548 150.509 137.007 161.849 137 164.998L137 172M158.667 156.333L159.333 156.667L158.667 156.333M163 156L164 157L163 156M56 157L57 158L56 157M69 157L70 158L69 157M96 157L97 158L96 157M108 157L109 158L108 157z"/>
<path style="fill:#036abe; stroke:none;" d="M122 157C122 168.822 121.511 188.795 139 178C139.654 181.054 141.007 180.936 144 181L144 157L138 157C138 161.036 139.818 176.599 132.45 175.685C125.969 174.882 128 161.311 128 157L122 157z"/>
<path style="fill:#679dd2; stroke:none;" d="M156 157L157 158L156 157M54 158L55 159L54 158M167 158L168 159L167 158M53 159L54 160L53 159M69 159L70 160L69 159M111 159L112 160L111 159M154 159L155 160L154 159M52 160L53 161L52 160M153 160L154 161L153 160M61 161L61 162L64 162L61 161M68.3333 161.667L68.6667 162.333L68.3333 161.667M92 161L93 162L92 161M102.667 161.333L103.333 161.667L102.667 161.333M163 161L164 162L163 161M51 162L52 163L51 162M59 162L60 163L59 162M66 162L67 163L66 162M99 162L100 163L99 162z"/>
<path style="fill:#fefefe; stroke:none;" d="M100.433 163.047C95.7561 166.015 98.3454 178.891 104.686 174.953C109.346 172.059 106.743 159.042 100.433 163.047z"/>
<path style="fill:#679dd2; stroke:none;" d="M105 162L106 163L105 162M113.333 162.667L113.667 163.333L113.333 162.667M152.333 162.667L152.667 163.333L152.333 162.667z"/>
<path style="fill:#fefefe; stroke:none;" d="M161.43 163.047C156.772 166.033 159.343 178.893 165.686 174.953C170.331 172.068 167.562 159.116 161.43 163.047z"/>
<path style="fill:#679dd2; stroke:none;" d="M166 162L167 163L166 162M58 163L59 164L58 163M91 163L92 164L91 163M106 163L107 164L106 163M98 164L99 165L98 164M159 164L160 165L159 164M167 164L168 165L167 164M50 165L50 173L51 173L50 165M57 165L57 168L58 168L57 165M107 165L107 173L108 173L107 165M114 165L114 172L115 172L114 165M158 167L158 171L159 171L158 167M168 167L168 171L169 171L168 167M97.3333 168.667L97.6667 169.333L97.3333 168.667M57 170L57 173L58 173L57 170M91.3333 173.667L91.6667 174.333L91.3333 173.667M98 173L99 174L98 173M159 173L160 174L159 173M58 174L59 175L58 174M68.6667 174.333L69.3333 174.667L68.6667 174.333M106 174L107 175L106 174M113.333 174.667L113.667 175.333L113.333 174.667M136 174L137 175L136 174M152.333 174.667L152.667 175.333L152.333 174.667M51 175L52 176L51 175M59 175L60 176L59 175M66 175L67 176L66 175M105 175L106 176L105 175M135 175L136 176L135 175M166 175L167 176L166 175M92 176L93 177L92 176M122.333 176.667L122.667 177.333L122.333 176.667M132 176L133 177L132 176M163 176L164 177L163 176M52 177L53 178L52 177M93 177L94 178L93 177M153 177L154 178L153 177M94 178L95 179L94 178M123 178L124 179L123 178M137.667 178.333L138.333 178.667L137.667 178.333M154 178L155 179L154 178M167.667 178.333L168.333 178.667L167.667 178.333M54 179L55 180L54 179M95 179L96 180L95 179M155 179L156 180L155 179M55 180L56 181L55 180M68 180L69 181L68 180M97 180L98 181L97 180M108 180L109 181L108 180M125 180L126 181L125 180M135 180L136 181L135 180M156 180L157 181L156 180M165 180L166 181L165 180M58 181L58 182L66 182L58 181M99 181L99 182L106 182L99 181M127 181L127 182L134 182L127 181M158 181L158 182L164 182L158 181M50 188L51 189L50 188M119 188L120 189L119 188M143 188L146 191L146 190L143 188z"/>
<path style="fill:#036abe; stroke:none;" d="M50 189L50 195L51 195L50 189z"/>
<path style="fill:#679dd2; stroke:none;" d="M84 189L88 192L88 191L84 189z"/>
<path style="fill:#036abe; stroke:none;" d="M119 189L120 190L119 189z"/>
<path style="fill:#679dd2; stroke:none;" d="M151 189L151 195L152 195L151 189M56 190L56 191L58 192L56 192L56 193C57.9601 193.653 58.554 194 56 194L56 195C59.8224 194.181 59.1452 191.396 56 190M68 190L68 191L71 195L72 195L68 190M76 190L80 195L80 190L79 190L79 194L77 194L76 190M91 194L95 195L95 194L93 194L93 193L96 192C93.3269 190.473 92.438 191.414 91 194M104 192L107 190L104 192M111 191L111 192L114 191L111 194C115.15 195.415 115.74 190.903 111 191M119 190L119 194L120 194L119 190M124 192L127 191L124 192M132 190L132 191L135 191L132 190M136.667 190.333L137.333 190.667L136.667 190.333M156 190L156 191L158 192L155 193L160 195L156 190M163 195L164 195L165 191L166 191L168 195L167 190L163 195M172.667 190.333L173.333 190.667L172.667 190.333z"/>
<path style="fill:#036abe; stroke:none;" d="M68 191L69 192L68 191M84 191L85 192L84 191z"/>
<path style="fill:#fefefe; stroke:none;" d="M85 191L85 194L87 194L87 191L85 191M93 191L94 192L93 191M112 191L112 194L114 194L114 191L112 191M125 191L125 194L127 194L127 191L125 191z"/>
<path style="fill:#036abe; stroke:none;" d="M127 191L128 192L127 191M132 191L133 192L132 191M135 191L136 192L135 191M138 191L138 195L139 195L138 191M143 191L144 192L143 191z"/>
<path style="fill:#fefefe; stroke:none;" d="M144 191L144 194L146 194L146 191L144 191z"/>
<path style="fill:#036abe; stroke:none;" d="M146 191L147 192L146 191M174 191L174 195L175 195L174 191z"/>
<path style="fill:#679dd2; stroke:none;" d="M68 192L68 195L69 195L68 192M84 192L88 195L88 194L84 192z"/>
<path style="fill:#036abe; stroke:none;" d="M87.3333 192.667L87.6667 193.333L87.3333 192.667M92 192L93 193L92 192M104 192L105 193L104 192M111.333 192.667L111.667 193.333L111.333 192.667M124.333 192.667L124.667 193.333L124.333 192.667z"/>
<path style="fill:#679dd2; stroke:none;" d="M127 192L124 194L124 195C126.348 194.706 127.951 194.507 127 192M132 192L132 195L133 195L132 192M135.333 192.667L135.667 193.333L135.333 192.667M143 192C144.278 194.898 146.25 195.483 147 192L146 192L143 192M174 195L174 194C172.04 193.347 171.446 193 174 193C171.473 192.126 171.016 194.359 174 195z"/>
<path style="fill:#036abe; stroke:none;" d="M55.3333 193.667L55.6667 194.333L55.3333 193.667z"/>
<path style="fill:#fefefe; stroke:none;" d="M56.6667 193.333L57.3333 193.667L56.6667 193.333z"/>
<path style="fill:#679dd2; stroke:none;" d="M104 193L105 194L104 193z"/>
<path style="fill:#fefefe; stroke:none;" d="M157 193L158 194L157 193M172.667 193.333L173.333 193.667L172.667 193.333z"/>
<path style="fill:#036abe; stroke:none;" d="M76 194L77 195L76 194M84 194L85 195L84 194M105 194L106 195L105 194z"/>
<path style="fill:#679dd2; stroke:none;" d="M106.667 194.333L107.333 194.667L106.667 194.333z"/>
<path style="fill:#036abe; stroke:none;" d="M119 194L120 195L119 194M135 194L136 195L135 194M143 194L144 195L143 194M156 194L157 195L156 194M158 194L159 195L158 194z"/>
</svg>
