<?xml version="1.0" standalone="yes"?>
<svg xmlns="http://www.w3.org/2000/svg" width="512" height="512">
<path style="fill:#7fb720; stroke:none;" d="M0 0L0 512L512 512L512 0L0 0z"/>
<path style="fill:#92b357; stroke:none;" d="M36 211L36 212L44 217L36 211z"/>
<path style="fill:#afd372; stroke:none;" d="M35 212L36 213L35 212z"/>
<path style="fill:#d5eea6; stroke:none;" d="M35 215L36 215L40 215C37.8499 212.925 36.7951 212.44 35 215z"/>
<path style="fill:#afd372; stroke:none;" d="M38 212L39 213L38 212z"/>
<path style="fill:#92b357; stroke:none;" d="M34 213L34 216L35 216L34 213z"/>
<path style="fill:#f8fdeb; stroke:none;" d="M36 213L41.9383 229L37 245L56 230L56 229L36 213z"/>
<path style="fill:#afd372; stroke:none;" d="M39 213L40 214L39 213M40 214L41 215L40 214M35 215L39 220L35 215M41 215L42 216L41 215z"/>
<path style="fill:#d5eea6; stroke:none;" d="M36 216L37 217L36 216M40 216L41 217L40 216M42 216L50 224L42 216z"/>
<path style="fill:#92b357; stroke:none;" d="M33 219L36 217L33 219z"/>
<path style="fill:#d5eea6; stroke:none;" d="M37 217L38 218L37 217z"/>
<path style="fill:#afd372; stroke:none;" d="M44 217L51 224L44 217z"/>
<path style="fill:#92b357; stroke:none;" d="M45 217L46 218L45 217M36 218L37 224C41.4017 229.132 37.8903 235.764 35 241C42.3863 235.423 43.4351 224.045 36 218z"/>
<path style="fill:#d5eea6; stroke:none;" d="M38 218L39 219L38 218z"/>
<path style="fill:#92b357; stroke:none;" d="M46 218L47 219L46 218M47 219L48 220L47 219z"/>
<path style="fill:#d5eea6; stroke:none;" d="M39 220L40 221L39 220z"/>
<path style="fill:#92b357; stroke:none;" d="M48 220L51 223L48 220M51.6667 220.333L52.3333 220.667L51.6667 220.333z"/>
<path style="fill:#d5eea6; stroke:none;" d="M40 222L41 227L42 227L40 222z"/>
<path style="fill:#afd372; stroke:none;" d="M40 223L41 224L40 223z"/>
<path style="fill:#92b357; stroke:none;" d="M51 223L51 224C59.4839 230.138 51.618 232.842 48 239C55.0755 235.056 62.3555 227.207 51 223z"/>
<path style="fill:#d5eea6; stroke:none;" d="M51 224L53 226L51 224z"/>
<path style="fill:#afd372; stroke:none;" d="M52 224L53 225L52 224z"/>
<path style="fill:#92b357; stroke:none;" d="M166 227L166 228L180 228L179 225L166 227z"/>
<path style="fill:#d5eea6; stroke:none;" d="M53 226L56 229L56 230L52 234C55.9052 231.426 56.6698 229.229 53 226z"/>
<path style="fill:#afd372; stroke:none;" d="M54 226L55 227L54 226z"/>
<path style="fill:#92b357; stroke:none;" d="M108 228L108 229L152 228L139 226.961L108 228M251 226L250 272L251 272L251 228L265 227L251 226z"/>
<path style="fill:#afd372; stroke:none;" d="M41 227L41 231L42 231L41 227M55 227L56 228L55 227M152 227L153 228L152 227z"/>
<path style="fill:#92b357; stroke:none;" d="M153 227L154 234L155 234L157 231L153 227z"/>
<path style="fill:#afd372; stroke:none;" d="M165 227L166 228L165 227M264 227L265 228L264 227z"/>
<path style="fill:#92b357; stroke:none;" d="M438 227L438 228L452 228L452 240L464 240C461.498 238.254 457.902 239.382 455.731 237.357C453.48 235.256 454.298 231.755 452.742 229.318C450.243 225.407 441.982 227 438 227z"/>
<path style="fill:#afd372; stroke:none;" d="M56 228L57 229L56 228z"/>
<path style="fill:#92b357; stroke:none;" d="M96 230L90 240L93 234L94 234L95 236C98.231 231.911 101.868 230.451 107 230L96 230z"/>
<path style="fill:#afd372; stroke:none;" d="M112.667 228.333L113.333 228.667L112.667 228.333z"/>
<path style="fill:#d5eea6; stroke:none;" d="M114 228L114 229L117 229L114 228z"/>
<path style="fill:#f8fdeb; stroke:none;" d="M140 255L140 265C131.231 265 118.829 267.273 111.019 262.633C103.084 257.918 103.493 242.819 111.189 237.905C121.573 231.274 141.106 235 153 235C152.688 225.603 143.15 228 136 228C121.785 228 99.2804 226.011 91.6042 241C76.9353 269.643 115.026 273 133 273C137.705 273 148.561 275.01 152.397 271.972C155.073 269.853 154 263.98 154 261C154 257.684 155.351 250.368 152.397 248.028C147.739 244.339 132.812 246.961 127 247.001C124.934 247.015 121.443 246.586 120.086 248.599C115.748 255.034 137.093 254.308 140 255z"/>
<path style="fill:#d5eea6; stroke:none;" d="M151 228L151 229L153 235C142.531 235 115.469 230.209 109 240C122.293 233.208 139.38 236 154 236L154 228L151 228z"/>
<path style="fill:#92b357; stroke:none;" d="M164 228L164 273L165 273C165 260.258 168.91 239.701 164 228z"/>
<path style="fill:#d5eea6; stroke:none;" d="M165 228L165 262C165 265.88 163.417 272.018 168 273L168 272C165.523 268.73 166 265.001 166 261C165.999 252.588 162.839 235.812 168 229L165 228z"/>
<path style="fill:#f8fdeb; stroke:none;" d="M179 272L179 253L179 241C179 235.99 175.338 219.471 167.028 229.742C162.552 235.275 166 254.942 166 262C166 264.65 165.228 269.034 167.028 271.258C169.572 274.402 175.704 272.612 179 272z"/>
<path style="fill:#d5eea6; stroke:none;" d="M177.667 228.333L178.333 228.667L177.667 228.333z"/>
<path style="fill:#afd372; stroke:none;" d="M179 228L179 273L165 273L165 274L178.397 272.972L180 262L179 228z"/>
<path style="fill:#d5eea6; stroke:none;" d="M251.667 228.333L252.333 228.667L251.667 228.333z"/>
<path style="fill:#f8fdeb; stroke:none;" d="M251 272C263.286 274.281 286.715 276.26 296.906 267.606C306.222 259.695 302.385 247.002 292 242.519C284.209 239.155 273.349 241 265 241C265 237.677 265.981 232.188 263.397 229.603C260.679 226.886 252.586 227.092 251.318 231.228C247.794 242.722 251 259.951 251 272z"/>
<path style="fill:#d5eea6; stroke:none;" d="M263 228L265 230L265 228L263 228z"/>
<path style="fill:#92b357; stroke:none;" d="M265 228L265 240L285 240L285 239C275.538 239 267.284 239.766 267 228L265 228M434 228L437 230L434 228z"/>
<path style="fill:#afd372; stroke:none;" d="M437 228L437 233L438 233L437 228z"/>
<path style="fill:#d5eea6; stroke:none;" d="M438 228L438 231L439 231L440 228L438 228z"/>
<path style="fill:#f8fdeb; stroke:none;" d="M438 241L428 242C430.063 247.388 434.069 246.201 439 247C437.115 253.377 436.112 265.432 442.214 269.852C447.446 273.642 463.621 276.266 465 268C451.692 266.309 448.983 258.671 452 246L465 246L466 241C462.359 241 456.485 242.085 453.318 239.972C449.629 237.511 452.363 232.622 449.972 229.603C442.217 219.813 438.001 236.16 438 241z"/>
<path style="fill:#d5eea6; stroke:none;" d="M450 228L451 240L452 240L450 228z"/>
<path style="fill:#afd372; stroke:none;" d="M107 229L108 230L107 229z"/>
<path style="fill:#d5eea6; stroke:none;" d="M108.667 229.333L109.333 229.667L108.667 229.333z"/>
<path style="fill:#afd372; stroke:none;" d="M154 229L155 230L154 229M56 230L57 231L56 230M102.667 230.333L103.333 230.667L102.667 230.333z"/>
<path style="fill:#d5eea6; stroke:none;" d="M104 230L104 231L107 231L104 230z"/>
<path style="fill:#92b357; stroke:none;" d="M180 230L180 237L181 237L180 230z"/>
<path style="fill:#d5eea6; stroke:none;" d="M41 231L41 234L42 234L41 231z"/>
<path style="fill:#afd372; stroke:none;" d="M99 231L100 232L99 231z"/>
<path style="fill:#d5eea6; stroke:none;" d="M100.667 231.333L101.333 231.667L100.667 231.333z"/>
<path style="fill:#afd372; stroke:none;" d="M54 232L55 233L54 232z"/>
<path style="fill:#92b357; stroke:none;" d="M59 232L60 233L59 232z"/>
<path style="fill:#afd372; stroke:none;" d="M60.6667 232.333L61.3333 232.667L60.6667 232.333z"/>
<path style="fill:#92b357; stroke:none;" d="M62 232L63 233L62 232z"/>
<path style="fill:#afd372; stroke:none;" d="M97 232L95 235L97 232z"/>
<path style="fill:#d5eea6; stroke:none;" d="M98 232L99 233L98 232z"/>
<path style="fill:#92b357; stroke:none;" d="M436 232C435.665 236.394 434.444 238.291 430 239L430 240L438 240L436 232z"/>
<path style="fill:#afd372; stroke:none;" d="M53 233L54 234L53 233z"/>
<path style="fill:#92b357; stroke:none;" d="M57 233L58 234L57 233z"/>
<path style="fill:#afd372; stroke:none;" d="M58 233L59 234L58 233z"/>
<path style="fill:#d5eea6; stroke:none;" d="M58 234L62 239C60.9436 236.178 60.7923 235.174 64 235L58 234z"/>
<path style="fill:#afd372; stroke:none;" d="M63 233L64 234L63 233z"/>
<path style="fill:#d5eea6; stroke:none;" d="M97 233L98 234L97 233z"/>
<path style="fill:#afd372; stroke:none;" d="M40 234L41 235L40 234z"/>
<path style="fill:#d5eea6; stroke:none;" d="M51 234L52 235L51 234z"/>
<path style="fill:#f8fdeb; stroke:none;" d="M61 234C60.9616 245.751 70.9196 252.02 59 263C63.7367 265.945 77.5102 255.596 77.6937 250.17C77.8726 244.878 65.2375 236.006 61 234z"/>
<path style="fill:#92b357; stroke:none;" d="M64 234L70 240L68 238L64 234z"/>
<path style="fill:#7fb720; stroke:none;" d="M93.3333 234.667L93.6667 235.333L93.3333 234.667z"/>
<path style="fill:#d5eea6; stroke:none;" d="M96 234L97 235L96 234z"/>
<path style="fill:#afd372; stroke:none;" d="M154 234L155 235L154 234z"/>
<path style="fill:#d5eea6; stroke:none;" d="M40 235L41 236L40 235M49 235L48 237L49 235z"/>
<path style="fill:#afd372; stroke:none;" d="M50 235L51 236L50 235M64 235L65 236L64 235z"/>
<path style="fill:#d5eea6; stroke:none;" d="M95 235L96 236L95 235z"/>
<path style="fill:#92b357; stroke:none;" d="M154 235L155 236L154 235z"/>
<path style="fill:#afd372; stroke:none;" d="M437.333 235.667L437.667 236.333L437.333 235.667M49 236L50 237L49 236M58 236L59 237L58 236z"/>
<path style="fill:#d5eea6; stroke:none;" d="M65 236L66 237L65 236z"/>
<path style="fill:#7fb720; stroke:none;" d="M91.3333 236.667L91.6667 237.333L91.3333 236.667z"/>
<path style="fill:#afd372; stroke:none;" d="M93 236L94 237L93 236z"/>
<path style="fill:#d5eea6; stroke:none;" d="M94 236L95 237L94 236z"/>
<path style="fill:#afd372; stroke:none;" d="M116.667 236.333L117.333 236.667L116.667 236.333z"/>
<path style="fill:#92b357; stroke:none;" d="M118 236L118 237L154 237C144.44 232.989 128.387 236 118 236z"/>
<path style="fill:#d5eea6; stroke:none;" d="M39 237L40 238L39 237M47 237L46 239L47 237z"/>
<path style="fill:#92b357; stroke:none;" d="M59 237L58 240C66.6187 244.002 61.2764 251.157 62 258L57 264L37 250L37 251C43.1492 255.637 56.302 263.705 56 272L57 272L82 251L82 250L77 241L73 241L81 250L81 251C78.0173 252.87 75.6917 255.294 72.9606 257.501C71.4352 258.733 60.8668 268.077 59.5918 263.717C58.8978 261.343 62.8042 258.017 63.7215 255.985C66.8061 249.153 64.2925 241.751 59 237z"/>
<path style="fill:#d5eea6; stroke:none;" d="M66 237L67 238L66 237M93 237L94 238L93 237z"/>
<path style="fill:#afd372; stroke:none;" d="M113 237L114 238L113 237z"/>
<path style="fill:#92b357; stroke:none;" d="M114 237L114 238L118 238L114 237M196 243C205.216 238.905 215.121 240 225 240L225 239L219 237C211.767 237.814 201.315 237.417 196 243M220 237L220 238L223 238L220 237z"/>
<path style="fill:#afd372; stroke:none;" d="M38 238L35 242L38 238M47 238L48 239L47 238M67 238L69 240L67 238z"/>
<path style="fill:#d5eea6; stroke:none;" d="M92 238L93 239L92 238z"/>
<path style="fill:#afd372; stroke:none;" d="M111 238L112 239L111 238z"/>
<path style="fill:#92b357; stroke:none;" d="M112.667 238.333L113.333 238.667L112.667 238.333z"/>
<path style="fill:#d5eea6; stroke:none;" d="M38 239L39 240L38 239z"/>
<path style="fill:#afd372; stroke:none;" d="M46 239L47 240L46 239M61 239L62 240L61 239z"/>
<path style="fill:#d5eea6; stroke:none;" d="M64 239L65 240L64 239M67 239L68 240L67 239z"/>
<path style="fill:#92b357; stroke:none;" d="M71.3333 239.667L71.6667 240.333L71.3333 239.667z"/>
<path style="fill:#afd372; stroke:none;" d="M91 239L90 241L91 239z"/>
<path style="fill:#92b357; stroke:none;" d="M110 239L112 241L112 239L110 239M114 239L115 240L114 239M314 239L314 240L337 240L314 239M344 239L344 240L351 240L344 239M377 239L377 240L405 240L377 239z"/>
<path style="fill:#d5eea6; stroke:none;" d="M37 240L38 241L37 240M43 240L42 242L43 240z"/>
<path style="fill:#afd372; stroke:none;" d="M44 240L45 241L44 240z"/>
<path style="fill:#92b357; stroke:none;" d="M43 241L43 242L47 240L43 241z"/>
<path style="fill:#afd372; stroke:none;" d="M62 240L64 242L62 240z"/>
<path style="fill:#d5eea6; stroke:none;" d="M63 240L64 241L63 240M69 240L76 248L77 248L69 240z"/>
<path style="fill:#afd372; stroke:none;" d="M70 240L71 241L70 240z"/>
<path style="fill:#d5eea6; stroke:none;" d="M91 240L90 243L91 240M107.333 240.667L107.667 241.333L107.333 240.667z"/>
<path style="fill:#afd372; stroke:none;" d="M108 240L109 241L108 240z"/>
<path style="fill:#92b357; stroke:none;" d="M109 240L110 241L109 240z"/>
<path style="fill:#afd372; stroke:none;" d="M202.667 240.333L203.333 240.667L202.667 240.333z"/>
<path style="fill:#d5eea6; stroke:none;" d="M204 240L204 241L208 241L204 240z"/>
<path style="fill:#f8fdeb; stroke:none;" d="M208 240.428C195.74 242.189 179.495 255.373 193.214 267.443C200.49 273.845 213.923 273.901 223 272.711C234.637 271.184 250.341 258.524 237.722 246.761C230.179 239.73 217.731 239.031 208 240.428z"/>
<path style="fill:#d5eea6; stroke:none;" d="M222 240L222 241L226 241L222 240z"/>
<path style="fill:#afd372; stroke:none;" d="M226.667 240.333L227.333 240.667L226.667 240.333z"/>
<path style="fill:#92b357; stroke:none;" d="M228 240L228 241L241 248C239.026 243.026 233.01 240.904 228 240z"/>
<path style="fill:#d5eea6; stroke:none;" d="M265 240L265 241L284 241L265 240z"/>
<path style="fill:#afd372; stroke:none;" d="M284 240L284 241L289 241L284 240z"/>
<path style="fill:#92b357; stroke:none;" d="M289 240L289 241L295 243L289 240z"/>
<path style="fill:#afd372; stroke:none;" d="M312 240L313 241L312 240z"/>
<path style="fill:#d5eea6; stroke:none;" d="M312 244L313 244L313 241L348 241C341.806 238.401 314.279 237.135 312 244z"/>
<path style="fill:#afd372; stroke:none;" d="M348 240L348 241L352 241L348 240z"/>
<path style="fill:#92b357; stroke:none;" d="M352 240L352 241L356 242L356 241L352 240z"/>
<path style="fill:#d5eea6; stroke:none;" d="M374 242L408 241C402.33 238.621 378.07 237.342 374 242z"/>
<path style="fill:#afd372; stroke:none;" d="M408 240L408 241L411 241L408 240z"/>
<path style="fill:#92b357; stroke:none;" d="M411 240L411 241L415 241L411 240M416 240C419.369 246.646 428.11 265.146 420.397 272.322C418.089 274.469 412.944 273.898 410 274L410 275C413.236 275.13 417.62 276.322 420.567 274.552C428.93 269.527 421.117 247.654 420 241L416 240M427 240C425.701 248.224 431.574 245.478 434.972 250.434C437.447 254.043 435.934 261.079 435 265L439 271L440 271L437 247L428 247L427 240z"/>
<path style="fill:#d5eea6; stroke:none;" d="M428 242L438 241C434.756 239.639 430.437 239.211 428 242M452 240L452 241L466 241L452 240z"/>
<path style="fill:#92b357; stroke:none;" d="M466 240L466 247L452 247C452 252.97 450.455 260.549 455 265C454.153 260.873 451.489 255.506 454.318 251.573C457.559 247.065 471.435 249.471 466 240z"/>
<path style="fill:#d5eea6; stroke:none;" d="M36 241L37 242L36 241z"/>
<path style="fill:#afd372; stroke:none;" d="M71.6667 241.333L72.3333 241.667L71.6667 241.333z"/>
<path style="fill:#92b357; stroke:none;" d="M88 241L88 243L90 243L90 241L88 241M108 241L109 242L108 241z"/>
<path style="fill:#afd372; stroke:none;" d="M198 241L197 243L198 241z"/>
<path style="fill:#d5eea6; stroke:none;" d="M199 241L199 242L202 242L199 241M229 241L230 242L229 241z"/>
<path style="fill:#afd372; stroke:none;" d="M230 241L231 242L230 241z"/>
<path style="fill:#d5eea6; stroke:none;" d="M290 241L293 243L293 242L290 241z"/>
<path style="fill:#afd372; stroke:none;" d="M291 241L292 242L291 241z"/>
<path style="fill:#92b357; stroke:none;" d="M311 241L311 246L312 246L311 241z"/>
<path style="fill:#f8fdeb; stroke:none;" d="M313 241L313 246C323.179 247.078 343.143 242.873 349 253C339.369 253 313.346 248.814 310.477 262.001C309.22 267.779 314.075 271.175 319.001 272.319C328.926 274.626 349.053 275.591 358.852 272.682C366.762 270.334 361.725 247.489 356.675 243.725C347.156 236.632 324.443 241 313 241z"/>
<path style="fill:#d5eea6; stroke:none;" d="M351 241L352 242L351 241M353 241L354 242L353 241z"/>
<path style="fill:#afd372; stroke:none;" d="M354 241L355 242L354 241z"/>
<path style="fill:#92b357; stroke:none;" d="M373 241L373 272L374 272L373 241z"/>
<path style="fill:#f8fdeb; stroke:none;" d="M387 272C387 265.787 385.099 255.883 387.603 250.148C390.029 244.593 403.196 246.258 406.397 250.279C410.924 255.966 404.682 265.887 409.028 271.258C411.477 274.285 419.473 273.717 420.682 269.772C422.942 262.399 422.612 246.419 414.96 242.573C409.003 239.579 400.466 241 394 241C389.623 241 378.08 238.97 375.028 242.742C372.358 246.042 372.249 269.167 375.603 271.821C378.531 274.138 383.727 272.608 387 272z"/>
<path style="fill:#d5eea6; stroke:none;" d="M412.667 241.333L413.333 241.667L412.667 241.333z"/>
<path style="fill:#afd372; stroke:none;" d="M414 241L414 242L417 243L414 241z"/>
<path style="fill:#92b357; stroke:none;" d="M34.3333 242.667L34.6667 243.333L34.3333 242.667z"/>
<path style="fill:#d5eea6; stroke:none;" d="M35 242L37 245L35 242M40 242L38 245L40 242z"/>
<path style="fill:#afd372; stroke:none;" d="M41 242L40 244L41 242z"/>
<path style="fill:#92b357; stroke:none;" d="M42 242L43 243L42 242z"/>
<path style="fill:#d5eea6; stroke:none;" d="M64.3333 242.667L64.6667 243.333L64.3333 242.667z"/>
<path style="fill:#afd372; stroke:none;" d="M73 242L74 243L73 242M107 242L108 243L107 242z"/>
<path style="fill:#d5eea6; stroke:none;" d="M198 242L199 243L198 242M231 242L232 243L231 242z"/>
<path style="fill:#afd372; stroke:none;" d="M232 242L233 243L232 242M293 242L294 243L293 242z"/>
<path style="fill:#d5eea6; stroke:none;" d="M355 242L358 244L358 243L355 242z"/>
<path style="fill:#afd372; stroke:none;" d="M356 242L357 243L356 242z"/>
<path style="fill:#92b357; stroke:none;" d="M357 242L358 243L357 242z"/>
<path style="fill:#d5eea6; stroke:none;" d="M415 242L416 243L415 242M465 242L465 246L459 246L459 247L466 247L465 242z"/>
<path style="fill:#92b357; stroke:none;" d="M41 243L39 244L39 245L41 243z"/>
<path style="fill:#afd372; stroke:none;" d="M74 243L75 244L74 243M89.3333 243.667L89.6667 244.333L89.3333 243.667z"/>
<path style="fill:#92b357; stroke:none;" d="M107 243L108 261L109 261L107 243M194 243L188 251L189 251L195 244L194 243z"/>
<path style="fill:#afd372; stroke:none;" d="M195 243L194 245L195 243z"/>
<path style="fill:#d5eea6; stroke:none;" d="M196 243L197 244L196 243M233 243L235 245L233 243z"/>
<path style="fill:#afd372; stroke:none;" d="M234 243L235 244L234 243z"/>
<path style="fill:#d5eea6; stroke:none;" d="M294 243L295 244L294 243z"/>
<path style="fill:#afd372; stroke:none;" d="M295 243L296 244L295 243z"/>
<path style="fill:#92b357; stroke:none;" d="M296 243C303.533 252.665 304.482 258.22 298 269C303.014 266.493 307.377 255.079 304 249C302.365 246.058 298.325 245.699 299 243L296 243M358 243C362.983 250.819 363 256.938 363 266L364 266C364 257.914 366.079 247.673 358 243z"/>
<path style="fill:#d5eea6; stroke:none;" d="M417 243L420 248L421 248L417 243z"/>
<path style="fill:#afd372; stroke:none;" d="M418 243L419 244L418 243M35 244L38 246L38 245L35 244M64 244L65 245L64 244M75 244L76 245L75 244z"/>
<path style="fill:#92b357; stroke:none;" d="M88 244L87 255L88 255L88 244z"/>
<path style="fill:#d5eea6; stroke:none;" d="M106 244L107 245L106 244z"/>
<path style="fill:#92b357; stroke:none;" d="M115 263L115 264C119.073 264.756 146.67 267.623 137.972 256.603C131.81 248.797 118.189 261.962 118 246L145 246C139.902 243.861 109.896 241.453 118.028 253.682C121.426 258.792 130.2 253.977 134.713 257.563C138.049 260.214 135 262.587 131.992 263.122C126.443 264.109 120.554 263.435 115 263z"/>
<path style="fill:#d5eea6; stroke:none;" d="M195 244L196 245L195 244z"/>
<path style="fill:#afd372; stroke:none;" d="M235 244L236 245L235 244z"/>
<path style="fill:#d5eea6; stroke:none;" d="M296 244L297 245L296 244z"/>
<path style="fill:#afd372; stroke:none;" d="M312 244L313 245L312 244M358 244L359 245L358 244M419 244L420 245L419 244z"/>
<path style="fill:#d5eea6; stroke:none;" d="M428 244L431 247L431 246L428 244z"/>
<path style="fill:#92b357; stroke:none;" d="M35 245L36 246L35 245M38 245L39 246L38 245z"/>
<path style="fill:#d5eea6; stroke:none;" d="M65 245L65 253L66 253L65 245z"/>
<path style="fill:#afd372; stroke:none;" d="M76 245L77 246L76 245z"/>
<path style="fill:#d5eea6; stroke:none;" d="M89 245L89 248L90 248L89 245M92 245L93 246L92 245z"/>
<path style="fill:#afd372; stroke:none;" d="M106 245L107 246L106 245z"/>
<path style="fill:#92b357; stroke:none;" d="M147 245L147 246L156 248L147 245z"/>
<path style="fill:#afd372; stroke:none;" d="M192 245L190 248L192 245z"/>
<path style="fill:#d5eea6; stroke:none;" d="M193 245L194 246L193 245M236 245L238 247L236 245z"/>
<path style="fill:#afd372; stroke:none;" d="M237 245L238 246L237 245z"/>
<path style="fill:#d5eea6; stroke:none;" d="M297 245L298 246L297 245M312 245L312 246L317 247L317 246L312 245M358.667 245.333L359.333 245.667L358.667 245.333M416 245L417 246L416 245z"/>
<path style="fill:#afd372; stroke:none;" d="M118 246C118.046 259.038 129.458 253.728 139 256L139 255L119 254L119 247L154 247L154 264C164.172 239.758 132.28 246 118 246z"/>
<path style="fill:#d5eea6; stroke:none;" d="M192 246L193 247L192 246M211.667 246.333L212.333 246.667L211.667 246.333z"/>
<path style="fill:#afd372; stroke:none;" d="M238 246L239 247L238 246z"/>
<path style="fill:#d5eea6; stroke:none;" d="M270 246L271 247L270 246M298 246L301 249L298 246z"/>
<path style="fill:#afd372; stroke:none;" d="M299 246L300 247L299 246M312 246L313 247L312 246z"/>
<path style="fill:#d5eea6; stroke:none;" d="M319 246L319 247L324 247L319 246M334 246L335 247L334 246z"/>
<path style="fill:#afd372; stroke:none;" d="M360 246L362 248L360 246M420 246L421 247L420 246z"/>
<path style="fill:#d5eea6; stroke:none;" d="M434 246L434 247L439 248L434 246M452.667 246.333L453.333 246.667L452.667 246.333z"/>
<path style="fill:#afd372; stroke:none;" d="M77 247L78 248L77 247z"/>
<path style="fill:#d5eea6; stroke:none;" d="M119 247L120 248L119 247M153 247L154 248L153 247M191 247L192 248L191 247M208.667 247.333L209.333 247.667L208.667 247.333z"/>
<path style="fill:#afd372; stroke:none;" d="M210 247L211 248L210 247z"/>
<path style="fill:#92b357; stroke:none;" d="M216 267L216 265C211.881 265 207.171 265.315 208 262C199.494 259.68 206.46 250.623 212.004 249.213C224.813 245.955 232.134 260.191 218 265C230.372 268.284 231.018 248.767 217 247.189C199.428 245.21 198.44 265.457 216 267z"/>
<path style="fill:#afd372; stroke:none;" d="M219 247L220 248L219 247z"/>
<path style="fill:#d5eea6; stroke:none;" d="M220.667 247.333L221.333 247.667L220.667 247.333z"/>
<path style="fill:#afd372; stroke:none;" d="M239 247L240 248L239 247z"/>
<path style="fill:#d5eea6; stroke:none;" d="M264 247L265 248L264 247z"/>
<path style="fill:#afd372; stroke:none;" d="M265 247L265 248L278 248L265 247z"/>
<path style="fill:#d5eea6; stroke:none;" d="M278 247L278 248L281 248L278 247z"/>
<path style="fill:#afd372; stroke:none;" d="M300 247L301 248L300 247z"/>
<path style="fill:#92b357; stroke:none;" d="M313 247L313 248C318.051 248.955 339.218 246.662 340 252L347 252C341.92 243.215 321.834 247 313 247z"/>
<path style="fill:#afd372; stroke:none;" d="M341 247L342 248L341 247z"/>
<path style="fill:#d5eea6; stroke:none;" d="M342.667 247.333L343.333 247.667L342.667 247.333M360 247L361 248L360 247M384 272L384 273C391.065 270.655 388 254.301 388 248L403 248C400.973 247.149 399.226 247.029 396.995 247.003C377.694 246.782 394.789 265.005 384 272z"/>
<path style="fill:#afd372; stroke:none;" d="M437 247L437 264L438 264L437 247z"/>
<path style="fill:#d5eea6; stroke:none;" d="M451 247L451 262L452 262L451 247M78 248L77 253L78 248z"/>
<path style="fill:#afd372; stroke:none;" d="M88 248L88 256L89 256L88 248z"/>
<path style="fill:#d5eea6; stroke:none;" d="M105 248L105 254L106 254L105 248M190 248L189 251L190 248M206 248L207 249L206 248z"/>
<path style="fill:#afd372; stroke:none;" d="M207 248L208 249L207 248z"/>
<path style="fill:#7fb720; stroke:none;" d="M208 262C208.921 268.66 222.656 264.981 225.523 260.935C233.36 249.877 213.273 245.546 206.495 251.282C202.691 254.503 202.549 261.442 208 262z"/>
<path style="fill:#afd372; stroke:none;" d="M222 248L223 249L222 248z"/>
<path style="fill:#d5eea6; stroke:none;" d="M223 248L224 249L223 248z"/>
<path style="fill:#afd372; stroke:none;" d="M240.333 248.667L240.667 249.333L240.333 248.667z"/>
<path style="fill:#92b357; stroke:none;" d="M265 248L265 266C270.589 266 277.87 267.214 282.981 264.543C288.831 261.486 289.941 253.276 284 250L284 251L287 259L283 264C279.144 264.716 273.778 266.121 270.148 263.972C265.787 261.39 265.776 252.743 270.148 250.18C273.826 248.023 279.006 249.828 283 250L265 248z"/>
<path style="fill:#afd372; stroke:none;" d="M282 248L285 250L285 249L282 248z"/>
<path style="fill:#d5eea6; stroke:none;" d="M283 248L284 249L283 248z"/>
<path style="fill:#afd372; stroke:none;" d="M344 248L345 249L344 248z"/>
<path style="fill:#d5eea6; stroke:none;" d="M345 248L346 249L345 248M361.333 248.667L361.667 249.333L361.333 248.667z"/>
<path style="fill:#92b357; stroke:none;" d="M388 248L387 274L390 273L390 249L403.608 250.938L408 257C406.447 245.798 397.066 248 388 248z"/>
<path style="fill:#afd372; stroke:none;" d="M404 248L405 249L404 248z"/>
<path style="fill:#d5eea6; stroke:none;" d="M405 248L406 249L405 248z"/>
<path style="fill:#afd372; stroke:none;" d="M421 248L421 251L422 251L421 248z"/>
<path style="fill:#92b357; stroke:none;" d="M180 249L180 273L181 273L180 249z"/>
<path style="fill:#afd372; stroke:none;" d="M189 249L190 250L189 249z"/>
<path style="fill:#d5eea6; stroke:none;" d="M204 249L203 251L204 249z"/>
<path style="fill:#afd372; stroke:none;" d="M205.667 249.333L206.333 249.667L205.667 249.333z"/>
<path style="fill:#d5eea6; stroke:none;" d="M224.667 249.333L225.333 249.667L224.667 249.333z"/>
<path style="fill:#92b357; stroke:none;" d="M241 249L242 253L243 253L241 249z"/>
<path style="fill:#7fb720; stroke:none;" d="M283 264L287 259L286 251C281.432 249.875 273.627 247.305 269.318 250.179C265.851 252.491 265.848 261.656 269.318 263.972C272.837 266.321 279.21 264.902 283 264z"/>
<path style="fill:#d5eea6; stroke:none;" d="M285 249L286 250L285 249z"/>
<path style="fill:#afd372; stroke:none;" d="M301 249L302 250L301 249M346 249L347 250L346 249z"/>
<path style="fill:#d5eea6; stroke:none;" d="M347 249L347 253L348 253L349 253L347 249z"/>
<path style="fill:#afd372; stroke:none;" d="M406 249L407 250L406 249M35 251L35 252L38 252L35 251M80 250L81 251L80 250M204 250L205 251L204 250z"/>
<path style="fill:#d5eea6; stroke:none;" d="M226 250L227 251L226 250M240 250L241 251L240 250z"/>
<path style="fill:#afd372; stroke:none;" d="M286 250L287 251L286 250z"/>
<path style="fill:#d5eea6; stroke:none;" d="M301 250L302 251L301 250z"/>
<path style="fill:#afd372; stroke:none;" d="M362 250L362 253L363 253L362 250z"/>
<path style="fill:#d5eea6; stroke:none;" d="M407 250L408 251L407 250M36 251L35 254L36 254L37 254L36 251z"/>
<path style="fill:#afd372; stroke:none;" d="M79 251L80 252L79 251M188 251L189 252L188 251M203 251L204 252L203 251z"/>
<path style="fill:#d5eea6; stroke:none;" d="M227 251L228 252L227 251z"/>
<path style="fill:#afd372; stroke:none;" d="M241 251L242 252L241 251M287 251L288 252L287 251M302.333 251.667L302.667 252.333L302.333 251.667z"/>
<path style="fill:#92b357; stroke:none;" d="M316 253L316 254L336 252L316 253z"/>
<path style="fill:#afd372; stroke:none;" d="M347 251L348 252L347 251M407 251L407 254L408 254L407 251z"/>
<path style="fill:#d5eea6; stroke:none;" d="M421 251C421 257.237 422.878 266.881 419 272L419 273C423.919 269.811 423.115 256.041 421 251z"/>
<path style="fill:#92b357; stroke:none;" d="M34 252L35 253L34 252z"/>
<path style="fill:#f8fdeb; stroke:none;" d="M36 252L41.9059 269L37 283L56 271C53.4239 263.443 43.2701 255.086 36 252z"/>
<path style="fill:#d5eea6; stroke:none;" d="M38 252L41 255L38 252z"/>
<path style="fill:#afd372; stroke:none;" d="M39 252L40 253L39 252M78 252L79 253L78 252z"/>
<path style="fill:#d5eea6; stroke:none;" d="M119 252L119 254L121 254L119 252z"/>
<path style="fill:#92b357; stroke:none;" d="M155 252L155 262L156 262L155 252z"/>
<path style="fill:#d5eea6; stroke:none;" d="M188 252L188 255L189 255L188 252M202 252L203 253L202 252z"/>
<path style="fill:#afd372; stroke:none;" d="M227 252L228 253L227 252z"/>
<path style="fill:#d5eea6; stroke:none;" d="M241.333 252.667L241.667 253.333L241.333 252.667M288 252L289 256L290 256L288 252z"/>
<path style="fill:#afd372; stroke:none;" d="M327 252L327 253L347 253L327 252M40 253L41 254L40 253z"/>
<path style="fill:#d5eea6; stroke:none;" d="M76 253L73 257L76 253z"/>
<path style="fill:#92b357; stroke:none;" d="M187.333 253.667L187.667 254.333L187.333 253.667z"/>
<path style="fill:#afd372; stroke:none;" d="M202 253L203 254L202 253z"/>
<path style="fill:#d5eea6; stroke:none;" d="M228.333 253.667L228.667 254.333L228.333 253.667z"/>
<path style="fill:#afd372; stroke:none;" d="M242 253L242 260L243 260L242 253z"/>
<path style="fill:#d5eea6; stroke:none;" d="M302.333 253.667L302.667 254.333L302.333 253.667z"/>
<path style="fill:#afd372; stroke:none;" d="M318.667 253.333L319.333 253.667L318.667 253.333z"/>
<path style="fill:#d5eea6; stroke:none;" d="M320 253L320 254L323 254L320 253M362 253L362 264L363 264L362 253z"/>
<path style="fill:#92b357; stroke:none;" d="M34 254C38.3983 263.465 42.847 270.639 34 279L34 283L35 283C40.8702 272.414 44.2376 263.358 34 254z"/>
<path style="fill:#afd372; stroke:none;" d="M35 254L36 255L35 254M41 254L42 255L41 254M64.3333 254.667L64.6667 255.333L64.3333 254.667M76 254L77 255L76 254z"/>
<path style="fill:#d5eea6; stroke:none;" d="M138 254L139 255L138 254M201 254L201 259L202 259L201 254z"/>
<path style="fill:#92b357; stroke:none;" d="M243 254L243 258L244 258L243 254M313.667 254.333L314.333 254.667L313.667 254.333z"/>
<path style="fill:#afd372; stroke:none;" d="M315.667 254.333L316.333 254.667L315.667 254.333z"/>
<path style="fill:#d5eea6; stroke:none;" d="M317 254L318 255L317 254M36 255L39 260L40 260L36 255z"/>
<path style="fill:#afd372; stroke:none;" d="M42 255L43 256L42 255M75 255L76 256L75 255z"/>
<path style="fill:#d5eea6; stroke:none;" d="M89 255C89.6352 260.709 92.8724 265.402 98 268L98 267L89 255M139 255L140 256L139 255z"/>
<path style="fill:#afd372; stroke:none;" d="M187 255L188 256L187 255M228 255L229 256L228 255M288 255L288 260L289 260L288 255z"/>
<path style="fill:#92b357; stroke:none;" d="M311 255L310 258L311 255z"/>
<path style="fill:#afd372; stroke:none;" d="M312 255L313 256L312 255z"/>
<path style="fill:#d5eea6; stroke:none;" d="M313 255L310 261L311 261L315 255L313 255z"/>
<path style="fill:#afd372; stroke:none;" d="M36 256L37 257L36 256M43 256L44 257L43 256z"/>
<path style="fill:#d5eea6; stroke:none;" d="M64 256L65 257L64 256z"/>
<path style="fill:#afd372; stroke:none;" d="M74 256L75 257L74 256z"/>
<path style="fill:#92b357; stroke:none;" d="M88 256L88 259L89 259L88 256z"/>
<path style="fill:#d5eea6; stroke:none;" d="M106 256L107 261L108 261L106 256z"/>
<path style="fill:#92b357; stroke:none;" d="M186 256C187.128 278.029 228.205 282.226 240 267C225.492 274.955 189.14 280.885 188 256L186 256z"/>
<path style="fill:#d5eea6; stroke:none;" d="M302 256L302 261L303 261L302 256z"/>
<path style="fill:#afd372; stroke:none;" d="M37 257L38 258L37 257M44.6667 257.333L45.3333 257.667L44.6667 257.333M63 257L64 258L63 257M72.6667 257.333L73.3333 257.667L72.6667 257.333M311 257L312 258L311 257M407 257L407 262L408 262L407 257z"/>
<path style="fill:#d5eea6; stroke:none;" d="M44.6667 258.333L45.3333 258.667L44.6667 258.333z"/>
<path style="fill:#afd372; stroke:none;" d="M62 258L61 260L62 258z"/>
<path style="fill:#d5eea6; stroke:none;" d="M70 258L69 260L70 258z"/>
<path style="fill:#afd372; stroke:none;" d="M71 258L72 259L71 258M228 258L229 259L228 258M310 258L311 259L310 258M38 259L39 260L38 259z"/>
<path style="fill:#d5eea6; stroke:none;" d="M46 259L47 260L46 259M62 259L63 260L62 259z"/>
<path style="fill:#afd372; stroke:none;" d="M70 259L71 260L70 259M89 259L90 260L89 259M107 259L108 260L107 259z"/>
<path style="fill:#d5eea6; stroke:none;" d="M188.333 259.667L188.667 260.333L188.333 259.667M228.333 259.667L228.667 260.333L228.333 259.667z"/>
<path style="fill:#92b357; stroke:none;" d="M309 259L308 270L325 275L361 275L361 274C349.299 274 337.638 274.296 326 273.17C320.791 272.666 315.137 273.229 311.318 268.856C308.71 265.869 309.556 262.534 309 259z"/>
<path style="fill:#afd372; stroke:none;" d="M39 260L40 261L39 260M47 260L48 261L47 260z"/>
<path style="fill:#d5eea6; stroke:none;" d="M61 260L58 263L58 264L63 265L63 264L59 264L59 263L61 260M67 260L64 264L67 260z"/>
<path style="fill:#afd372; stroke:none;" d="M68 260L69 261L68 260z"/>
<path style="fill:#92b357; stroke:none;" d="M89 260L96 268L89 260z"/>
<path style="fill:#afd372; stroke:none;" d="M202 260L204 262L202 260z"/>
<path style="fill:#d5eea6; stroke:none;" d="M241 260L240 264L241 264L241 260z"/>
<path style="fill:#92b357; stroke:none;" d="M242.333 260.667L242.667 261.333L242.333 260.667z"/>
<path style="fill:#7fb720; stroke:none;" d="M285 260L286 261L285 260z"/>
<path style="fill:#d5eea6; stroke:none;" d="M288 260L289 261L288 260z"/>
<path style="fill:#afd372; stroke:none;" d="M309.333 260.667L309.667 261.333L309.333 260.667z"/>
<path style="fill:#d5eea6; stroke:none;" d="M324.667 260.333L325.333 260.667L324.667 260.333z"/>
<path style="fill:#afd372; stroke:none;" d="M326 260L326 261L347 261L326 260z"/>
<path style="fill:#d5eea6; stroke:none;" d="M347 260L348 261L347 260M40 261L41 262L40 261z"/>
<path style="fill:#afd372; stroke:none;" d="M48 261L48 262L51 263L48 261M59 261L60 262L59 261M67 261L68 262L67 261M90 261L91 262L90 261z"/>
<path style="fill:#d5eea6; stroke:none;" d="M108 261L109 262L108 261z"/>
<path style="fill:#afd372; stroke:none;" d="M109 261L110 262L109 261z"/>
<path style="fill:#92b357; stroke:none;" d="M110 261L111 262L110 261z"/>
<path style="fill:#afd372; stroke:none;" d="M188 261L189 262L188 261z"/>
<path style="fill:#d5eea6; stroke:none;" d="M202 261L203 262L202 261z"/>
<path style="fill:#afd372; stroke:none;" d="M227 261L228 262L227 261M287 261L285 264L287 261M302 261L303 262L302 261M323.667 261.333L324.333 261.667L323.667 261.333z"/>
<path style="fill:#92b357; stroke:none;" d="M323 262C325.846 269.079 341.444 266 348 266L348 261L323 262z"/>
<path style="fill:#d5eea6; stroke:none;" d="M49 262L50 263L49 262z"/>
<path style="fill:#afd372; stroke:none;" d="M58 262L59 263L58 262M66 262L67 263L66 262M91 262L92 263L91 262z"/>
<path style="fill:#d5eea6; stroke:none;" d="M110 262L111 263L110 262z"/>
<path style="fill:#afd372; stroke:none;" d="M111 262L112 263L111 262z"/>
<path style="fill:#92b357; stroke:none;" d="M112.667 262.333L113.333 262.667L112.667 262.333z"/>
<path style="fill:#d5eea6; stroke:none;" d="M189 262L193 268L189 262M203 262L204 263L203 262M226 262L227 263L226 262z"/>
<path style="fill:#afd372; stroke:none;" d="M241 262L242 263L241 262z"/>
<path style="fill:#d5eea6; stroke:none;" d="M287 262L288 263L287 262M301 262L294 269L294 270C297.435 268.393 301.086 266.074 301 262M309 262L311 269L312 269L309 262z"/>
<path style="fill:#7fb720; stroke:none;" d="M325 263L325 264C330.401 265.596 341.375 267.026 345 262L325 263z"/>
<path style="fill:#92b357; stroke:none;" d="M407 262L407 271L408 271L407 262z"/>
<path style="fill:#d5eea6; stroke:none;" d="M51 263L52 264L51 263z"/>
<path style="fill:#afd372; stroke:none;" d="M65 263L66 264L65 263M92 263L93 264L92 263z"/>
<path style="fill:#d5eea6; stroke:none;" d="M112 263L113 264L112 263z"/>
<path style="fill:#afd372; stroke:none;" d="M113.667 263.333L114.333 263.667L113.667 263.333M204 263L205 264L204 263M223 265L226 264L223 265z"/>
<path style="fill:#92b357; stroke:none;" d="M241 263L242 264L241 263z"/>
<path style="fill:#d5eea6; stroke:none;" d="M286 263L287 264L286 263z"/>
<path style="fill:#afd372; stroke:none;" d="M452 263L457 267L457 266L452 263z"/>
<path style="fill:#d5eea6; stroke:none;" d="M41 264L42 265L41 264M52 264L56 270L57 270L52 264z"/>
<path style="fill:#afd372; stroke:none;" d="M53 264L54 265L53 264M58 264L59 265L58 264M63 264L64 265L63 264M93 264L94 265L93 264z"/>
<path style="fill:#d5eea6; stroke:none;" d="M114 264L114 265L117 265L114 264z"/>
<path style="fill:#afd372; stroke:none;" d="M117 264L118 265L117 264M138 264L139 265L138 264z"/>
<path style="fill:#d5eea6; stroke:none;" d="M139 264L140 265L139 264z"/>
<path style="fill:#92b357; stroke:none;" d="M154 264L153 273L153 274L156 273L155 271L157 264L154 264z"/>
<path style="fill:#afd372; stroke:none;" d="M189 264L190 265L189 264z"/>
<path style="fill:#d5eea6; stroke:none;" d="M205 264L205 265L210 267L210 266L205 264z"/>
<path style="fill:#afd372; stroke:none;" d="M206 264L207 265L206 264z"/>
<path style="fill:#d5eea6; stroke:none;" d="M224 264L225 265L224 264z"/>
<path style="fill:#afd372; stroke:none;" d="M240 264L241 265L240 264M283 264L284 265L283 264z"/>
<path style="fill:#d5eea6; stroke:none;" d="M284.667 264.333L285.333 264.667L284.667 264.333M322 264L324 266L322 264z"/>
<path style="fill:#afd372; stroke:none;" d="M323 264L324 265L323 264M362 264L362 273L328 273L328 274C336.562 274 368.383 279.217 362 264z"/>
<path style="fill:#d5eea6; stroke:none;" d="M452 264L453 265L452 264z"/>
<path style="fill:#92b357; stroke:none;" d="M456 264L464 267L456 264z"/>
<path style="fill:#afd372; stroke:none;" d="M41 265L41 271L42 271L41 265M54 265L55 266L54 265M59 265L60 266L59 265M62 265L63 266L62 265M208 265L209 266L208 265M221 265L222 266L221 265z"/>
<path style="fill:#d5eea6; stroke:none;" d="M222.667 265.333L223.333 265.667L222.667 265.333M239 265L236 269L239 265z"/>
<path style="fill:#92b357; stroke:none;" d="M240 265L241 266L240 265z"/>
<path style="fill:#d5eea6; stroke:none;" d="M264 265L265 266L264 265z"/>
<path style="fill:#afd372; stroke:none;" d="M281 265L282 266L281 265z"/>
<path style="fill:#d5eea6; stroke:none;" d="M282.667 265.333L283.333 265.667L282.667 265.333z"/>
<path style="fill:#afd372; stroke:none;" d="M300 265L301 266L300 265z"/>
<path style="fill:#d5eea6; stroke:none;" d="M438 265L439 269L440 269L438 265M453 265L454 266L453 265z"/>
<path style="fill:#afd372; stroke:none;" d="M55 266L56 267L55 266M190 266L191 267L190 266M210.667 266.333L211.333 266.667L210.667 266.333M216 266L216 267L220 267L216 266z"/>
<path style="fill:#d5eea6; stroke:none;" d="M220.667 266.333L221.333 266.667L220.667 266.333z"/>
<path style="fill:#afd372; stroke:none;" d="M239 266L240 267L239 266z"/>
<path style="fill:#d5eea6; stroke:none;" d="M265.667 266.333L266.333 266.667L265.667 266.333M268 266L268 267L272 267L268 266M275 266L275 267L278 267L275 266z"/>
<path style="fill:#afd372; stroke:none;" d="M299 266L300 267L299 266M309.333 266.667L309.667 267.333L309.333 266.667z"/>
<path style="fill:#d5eea6; stroke:none;" d="M324.667 266.333L325.333 266.667L324.667 266.333z"/>
<path style="fill:#afd372; stroke:none;" d="M326 266L326 267L347 267L326 266z"/>
<path style="fill:#d5eea6; stroke:none;" d="M347 266L348 267L347 266M455 266L456 267L455 266z"/>
<path style="fill:#afd372; stroke:none;" d="M464 266L465 267L464 266z"/>
<path style="fill:#92b357; stroke:none;" d="M465 266L465 274L466 274C467.324 270.629 467.355 268.811 465 266z"/>
<path style="fill:#afd372; stroke:none;" d="M191 267L192 268L191 267z"/>
<path style="fill:#d5eea6; stroke:none;" d="M216 267L216 268L219 268L216 267z"/>
<path style="fill:#afd372; stroke:none;" d="M238 267L239 268L238 267M298 267L299 268L298 267M438 267L439 268L438 267z"/>
<path style="fill:#d5eea6; stroke:none;" d="M461 267L461 268L465 268L464 273L466 267L461 267z"/>
<path style="fill:#92b357; stroke:none;" d="M96 268C106.105 280.428 137.559 275 152 275L152 274C134.234 274 112.144 276.249 96 268z"/>
<path style="fill:#afd372; stroke:none;" d="M97 268L98 269L97 268M193 268L195 270L193 268z"/>
<path style="fill:#d5eea6; stroke:none;" d="M194 268L195 269L194 268z"/>
<path style="fill:#afd372; stroke:none;" d="M237 268L238 269L237 268M297 268L298 269L297 268M310 268L311 269L310 268M98 269L99 270L98 269z"/>
<path style="fill:#d5eea6; stroke:none;" d="M99 269L100 270L99 269M195 269L196 270L195 269M233 271L236 270L233 271z"/>
<path style="fill:#92b357; stroke:none;" d="M296 269L297 270L296 269M299 269L300 270L299 269z"/>
<path style="fill:#afd372; stroke:none;" d="M311 269L312 270L311 269z"/>
<path style="fill:#d5eea6; stroke:none;" d="M440 269L440 270L443 271L440 269z"/>
<path style="fill:#afd372; stroke:none;" d="M56 270L57 271L56 270M100 270L101 271L100 270z"/>
<path style="fill:#d5eea6; stroke:none;" d="M101.667 270.333L102.333 270.667L101.667 270.333z"/>
<path style="fill:#afd372; stroke:none;" d="M196 270L197 271L196 270z"/>
<path style="fill:#d5eea6; stroke:none;" d="M197.667 270.333L198.333 270.667L197.667 270.333M231 270L229 271L229 272L231 270z"/>
<path style="fill:#afd372; stroke:none;" d="M234 270L235 271L234 270z"/>
<path style="fill:#d5eea6; stroke:none;" d="M292 270L293 271L292 270z"/>
<path style="fill:#afd372; stroke:none;" d="M293.667 270.333L294.333 270.667L293.667 270.333z"/>
<path style="fill:#92b357; stroke:none;" d="M295 270L296 271L295 270z"/>
<path style="fill:#d5eea6; stroke:none;" d="M312 270L312 271L316 272L316 271L312 270z"/>
<path style="fill:#afd372; stroke:none;" d="M440.667 270.333L441.333 270.667L440.667 270.333z"/>
<path style="fill:#d5eea6; stroke:none;" d="M41 271L40 275L41 275L41 271M54 271L55 272L54 271z"/>
<path style="fill:#afd372; stroke:none;" d="M55 271L56 272L55 271M103 271L104 272L103 271z"/>
<path style="fill:#d5eea6; stroke:none;" d="M104 271L104 272L108 272L104 271z"/>
<path style="fill:#afd372; stroke:none;" d="M198.667 271.333L199.333 271.667L198.667 271.333z"/>
<path style="fill:#d5eea6; stroke:none;" d="M200 271L201 272L200 271z"/>
<path style="fill:#afd372; stroke:none;" d="M231 271L232 272L231 271z"/>
<path style="fill:#d5eea6; stroke:none;" d="M289.667 271.333L290.333 271.667L289.667 271.333z"/>
<path style="fill:#afd372; stroke:none;" d="M291 271L292 272L291 271z"/>
<path style="fill:#92b357; stroke:none;" d="M292.667 271.333L293.333 271.667L292.667 271.333z"/>
<path style="fill:#afd372; stroke:none;" d="M313 271L314 272L313 271M407 271L408 272L407 271z"/>
<path style="fill:#92b357; stroke:none;" d="M441.667 271.333L442.333 271.667L441.667 271.333z"/>
<path style="fill:#afd372; stroke:none;" d="M443 271L444 272L443 271z"/>
<path style="fill:#d5eea6; stroke:none;" d="M444 271L445 272L444 271M52 272L50 275L52 272z"/>
<path style="fill:#afd372; stroke:none;" d="M53 272L52 274L53 272z"/>
<path style="fill:#92b357; stroke:none;" d="M54 272L55 273L54 272z"/>
<path style="fill:#afd372; stroke:none;" d="M109 272L109 273L112 273L109 272z"/>
<path style="fill:#d5eea6; stroke:none;" d="M112 272L112 273L115 273L112 272M153 272L154 273L153 272z"/>
<path style="fill:#afd372; stroke:none;" d="M154 272L155 273L154 272z"/>
<path style="fill:#d5eea6; stroke:none;" d="M176 272L176 273L179 273L176 272z"/>
<path style="fill:#afd372; stroke:none;" d="M203 272L204 273L203 272z"/>
<path style="fill:#d5eea6; stroke:none;" d="M204 272L204 273L207 273L204 272M224.667 272.333L225.333 272.667L224.667 272.333z"/>
<path style="fill:#afd372; stroke:none;" d="M226.667 272.333L227.333 272.667L226.667 272.333M250 272L251 273L250 272z"/>
<path style="fill:#d5eea6; stroke:none;" d="M251 272L251 273L254 273L251 272M282 272L282 273L285 273L282 272z"/>
<path style="fill:#afd372; stroke:none;" d="M285.667 272.333L286.333 272.667L285.667 272.333z"/>
<path style="fill:#92b357; stroke:none;" d="M287 272L287 273L292 273L287 272z"/>
<path style="fill:#afd372; stroke:none;" d="M317.667 272.333L318.333 272.667L317.667 272.333z"/>
<path style="fill:#d5eea6; stroke:none;" d="M319 272L320 273L319 272M361 272L362 273L361 272z"/>
<path style="fill:#92b357; stroke:none;" d="M363 272L364 273L363 272z"/>
<path style="fill:#afd372; stroke:none;" d="M373 272L374 273L373 272z"/>
<path style="fill:#d5eea6; stroke:none;" d="M374.667 272.333L375.333 272.667L374.667 272.333z"/>
<path style="fill:#afd372; stroke:none;" d="M387 272L388 273L387 272z"/>
<path style="fill:#92b357; stroke:none;" d="M407.333 272.667L407.667 273.333L407.333 272.667z"/>
<path style="fill:#d5eea6; stroke:none;" d="M408.667 272.333L409.333 272.667L408.667 272.333z"/>
<path style="fill:#afd372; stroke:none;" d="M421 272L422 273L421 272z"/>
<path style="fill:#92b357; stroke:none;" d="M445 272C448.56 276.937 457.452 275 463 275L463 274L445 272z"/>
<path style="fill:#afd372; stroke:none;" d="M447 272L448 273L447 272z"/>
<path style="fill:#d5eea6; stroke:none;" d="M448 272L448 273L451 273L448 272z"/>
<path style="fill:#afd372; stroke:none;" d="M40 273L41 274L40 273z"/>
<path style="fill:#92b357; stroke:none;" d="M53 273L54 274L53 273M55 273L56 274L55 273z"/>
<path style="fill:#afd372; stroke:none;" d="M128 273L128 274L153 274L128 273z"/>
<path style="fill:#92b357; stroke:none;" d="M179 273L180 274L179 273z"/>
<path style="fill:#afd372; stroke:none;" d="M208 273L208 274L213 274L208 273z"/>
<path style="fill:#d5eea6; stroke:none;" d="M213 273L213 274L218 274L213 273z"/>
<path style="fill:#afd372; stroke:none;" d="M218 273L218 274L222 274L218 273z"/>
<path style="fill:#92b357; stroke:none;" d="M251 273L257 275L257 274L251 273z"/>
<path style="fill:#afd372; stroke:none;" d="M252 273L253 274L252 273M256 273L256 274L280 274L256 273z"/>
<path style="fill:#92b357; stroke:none;" d="M258 274L258 275L287 274L258 274M362 273L363 274L362 273M374 273L375 274L374 273z"/>
<path style="fill:#afd372; stroke:none;" d="M375 273L375 274L387 274L375 273M408 273L408 274L416 274L408 273M417 273L417 274L421 274L417 273M456 273L456 274L465 274L456 273z"/>
<path style="fill:#92b357; stroke:none;" d="M38 284L38 285L54 275L38 284M168 274L168 275L179 275L168 274M376 274L376 275L385 276L376 274z"/>
<path style="fill:#afd372; stroke:none;" d="M39 275L40 276L39 275M49 275L50 276L49 275z"/>
<path style="fill:#d5eea6; stroke:none;" d="M39 276L35 283L40 283L40 282L37 283L39 276M47 276L43 281L47 276z"/>
<path style="fill:#afd372; stroke:none;" d="M48 276L49 277L48 276M38 277L39 278L38 277M47 277L48 278L47 277M37 278L38 279L37 278M46 278L47 279L46 278M45 279L46 280L45 279z"/>
<path style="fill:#92b357; stroke:none;" d="M50 279L51 280L50 279z"/>
<path style="fill:#afd372; stroke:none;" d="M44 280L45 281L44 280M35 281L36 282L35 281z"/>
<path style="fill:#d5eea6; stroke:none;" d="M41 281L42 282L41 281z"/>
<path style="fill:#afd372; stroke:none;" d="M42 281L43 282L42 281M40 282L41 283L40 282z"/>
<path style="fill:#92b357; stroke:none;" d="M444 282L445 283L444 282z"/>
<path style="fill:#afd372; stroke:none;" d="M35 283L38 285L38 284L35 283M39 283L40 284L39 283M443 283L443 290L444 290L444 284L445 284L445 302L446 302L446 283L443 283z"/>
<path style="fill:#92b357; stroke:none;" d="M35 284L36 285L35 284M442 284L435 291L442 290L443 290L442 284z"/>
<path style="fill:#d5eea6; stroke:none;" d="M444 284L444 290C438.478 289.558 429.602 295.269 436.742 300.969C438.736 302.561 442.605 301.872 445 302L445 296C443.468 296.982 441.409 299.573 439.479 299.52C434.975 299.397 436.662 287.08 444 295L445 295L444 284z"/>
<path style="fill:#92b357; stroke:none;" d="M36 285L37 286L36 285M446 285L446 294L447 294L446 285M276 298L277 298C277.351 293.378 279.067 291.349 283 289C277.587 288.275 276.145 293.542 276 298M284 288L286 290L284 288M332 288L332 289L332 290L337 291L338 291L332 288M346 288L347 289L346 288M348.333 288.667L348.667 289.333L348.333 288.667M350.667 288.333L351.333 288.667L350.667 288.333M379 289L379 290L383 290L379 289M384 288L386 291C381.42 293.809 382.147 298.187 381 303L382 303L383 293L387 291L387 290L384 288M394 292L401 289L394 292M417 288L418 289L417 288M420 288L420 289L424 291L424 290L420 288M434 288L435 289L434 288z"/>
<path style="fill:#7fb720; stroke:none;" d="M441 288L442 289L441 288z"/>
<path style="fill:#92b357; stroke:none;" d="M458 288L461 297L465 289L460 291L458 288M250 289L251 290L250 289z"/>
<path style="fill:#afd372; stroke:none;" d="M250 292L251 292L253 290L250 292z"/>
<path style="fill:#92b357; stroke:none;" d="M253 289L255 297L256 297L259 289L253 289z"/>
<path style="fill:#afd372; stroke:none;" d="M258 291L261 290L258 291z"/>
<path style="fill:#92b357; stroke:none;" d="M265 289L266 290L265 289z"/>
<path style="fill:#afd372; stroke:none;" d="M265 292L266 292L269 291L265 292z"/>
<path style="fill:#92b357; stroke:none;" d="M268 289L269 290L268 289z"/>
<path style="fill:#afd372; stroke:none;" d="M281 289L281 290L285 290L281 289z"/>
<path style="fill:#92b357; stroke:none;" d="M311 289L310 298L311 298L312 293L317 293L317 292L312 292L313 289L311 289z"/>
<path style="fill:#afd372; stroke:none;" d="M313 289L313 290L317 290L313 289z"/>
<path style="fill:#92b357; stroke:none;" d="M317 289L317 290L320 291L317 289z"/>
<path style="fill:#afd372; stroke:none;" d="M331 289L332 290L331 289M333 290L333 291L337 290L333 290z"/>
<path style="fill:#92b357; stroke:none;" d="M344 289L345 290L344 289z"/>
<path style="fill:#afd372; stroke:none;" d="M349.667 289.333L350.333 289.667L349.667 289.333z"/>
<path style="fill:#d5eea6; stroke:none;" d="M355 300C350.955 300.066 349.1 299.256 349 295L356 296C355.004 289.707 346.603 287.354 345.426 295.004C344.589 300.444 351.457 304.054 355 300z"/>
<path style="fill:#afd372; stroke:none;" d="M352.667 289.333L353.333 289.667L352.667 289.333M380 289L380 303L381 303L380 289M382 290L382 291L385 290L384 292L385 292L386 290L382 290M398 289L399 290L398 289z"/>
<path style="fill:#d5eea6; stroke:none;" d="M396 298L395 301L404 300C399.002 300.076 397.043 298.519 395 294L405 296C402.029 284.957 390.504 293.115 396 298z"/>
<path style="fill:#afd372; stroke:none;" d="M400.667 289.333L401.333 289.667L400.667 289.333z"/>
<path style="fill:#92b357; stroke:none;" d="M402.667 289.333L403.333 289.667L402.667 289.333M415 289L414 296L421 293L421 292L415 292L415 289z"/>
<path style="fill:#afd372; stroke:none;" d="M416 289L416 290L421 290L416 289M437.667 289.333L438.333 289.667L437.667 289.333M440.667 289.333L441.333 289.667L440.667 289.333M455 289L455 290L455 291L458 291L458 290L455 289M465 289L466 290L465 289z"/>
<path style="fill:#d5eea6; stroke:none;" d="M251 290L253 300L254 301L254 302L257 296L256 296L257 299L251 290M258 292L261 290L258 292z"/>
<path style="fill:#92b357; stroke:none;" d="M261 290L263 297L264 297L265 292L261 290z"/>
<path style="fill:#d5eea6; stroke:none;" d="M266 290L265 298L266 298L268 290L266 290M278 293C282.16 291.614 283.974 291.733 287 295L281 294L281 296L288 296C287.045 290.011 282.182 288.734 278 293z"/>
<path style="fill:#afd372; stroke:none;" d="M286 290L287 291L286 290z"/>
<path style="fill:#d5eea6; stroke:none;" d="M312 290L312 291L317 291L317 294C306.832 295.622 313.296 301.506 320 302L317 297L313 301C313.079 296.85 315.063 296.032 319 296C320.252 290.624 316.647 290.113 312 290z"/>
<path style="fill:#afd372; stroke:none;" d="M318 290L319 291L318 290z"/>
<path style="fill:#92b357; stroke:none;" d="M330.333 290.667L330.667 291.333L330.333 290.667z"/>
<path style="fill:#d5eea6; stroke:none;" d="M331 290L331 302L333 302C333.004 297.256 332.643 293.673 337 291L331 290z"/>
<path style="fill:#afd372; stroke:none;" d="M347 290L348 291L347 290M354 290L355 291L354 290z"/>
<path style="fill:#d5eea6; stroke:none;" d="M380 290L380 302L382 302L385 291L380 290z"/>
<path style="fill:#afd372; stroke:none;" d="M403 290L404 291L403 290z"/>
<path style="fill:#d5eea6; stroke:none;" d="M415 290L415 291L422 292L422 295C417.666 294.101 415.571 294.731 414 299L422 296C420.261 299.243 418.656 299.944 415 300L415 301L424 302C424 293.911 424.061 290.082 415 290z"/>
<path style="fill:#afd372; stroke:none;" d="M422 290L423 291L422 290z"/>
<path style="fill:#d5eea6; stroke:none;" d="M456 290L457 296L458 296L456 290M464 290L463 298L464 298L466 290L464 290z"/>
<path style="fill:#92b357; stroke:none;" d="M466.333 290.667L466.667 291.333L466.333 290.667M268 291L269 292L268 291z"/>
<path style="fill:#afd372; stroke:none;" d="M278 291L279 292L278 291M281 291L282 292L281 291z"/>
<path style="fill:#92b357; stroke:none;" d="M280 294L285 294C283.22 291.626 281.78 291.626 280 294z"/>
<path style="fill:#afd372; stroke:none;" d="M283.667 291.333L284.333 291.667L283.667 291.333M287 291L288 292L287 291M312.667 291.333L313.333 291.667L312.667 291.333M316 291L317 292L316 291M335.667 291.333L336.333 291.667L335.667 291.333z"/>
<path style="fill:#92b357; stroke:none;" d="M345 291L346 292L345 291z"/>
<path style="fill:#afd372; stroke:none;" d="M346 291L347 292L346 291M349 291L348 293L349 291z"/>
<path style="fill:#92b357; stroke:none;" d="M348 294L354 293C351.318 291.412 350.199 291.876 348 294z"/>
<path style="fill:#afd372; stroke:none;" d="M352 291L353 292L352 291M355 291L356 292L355 291z"/>
<path style="fill:#92b357; stroke:none;" d="M356 291L356 295L357 295L356 291z"/>
<path style="fill:#afd372; stroke:none;" d="M397 291L396 293L397 291z"/>
<path style="fill:#92b357; stroke:none;" d="M396 294L403 294C400.272 291.554 398.663 291.472 396 294z"/>
<path style="fill:#afd372; stroke:none;" d="M400.667 291.333L401.333 291.667L400.667 291.333M404 291L404 294L405 294L404 291M415.667 291.333L416.333 291.667L415.667 291.333M419.667 291.333L420.333 291.667L419.667 291.333M438 291L439 292L438 291z"/>
<path style="fill:#92b357; stroke:none;" d="M439 291C435.802 294.742 435.987 298.415 441 300L441 296L442 298L443 298L443 292L440 293L439 291z"/>
<path style="fill:#afd372; stroke:none;" d="M440.667 291.333L441.333 291.667L440.667 291.333z"/>
<path style="fill:#f8fdeb; stroke:none;" d="M443 291L444 292L443 291z"/>
<path style="fill:#92b357; stroke:none;" d="M455 291L456 292L455 291z"/>
<path style="fill:#afd372; stroke:none;" d="M463 291L464 292L463 291z"/>
<path style="fill:#92b357; stroke:none;" d="M250 292L251 293L250 292z"/>
<path style="fill:#afd372; stroke:none;" d="M253 292L254 293L253 292M257 292L258 293L257 292z"/>
<path style="fill:#f8fdeb; stroke:none;" d="M258 292L257 297L258 297L258 292z"/>
<path style="fill:#afd372; stroke:none;" d="M259 292L260 293L259 292z"/>
<path style="fill:#f8fdeb; stroke:none;" d="M260 292L261 293L260 292z"/>
<path style="fill:#afd372; stroke:none;" d="M261 292L262 293L261 292M267 292L268 293L267 292M277 292L277 295L278 295L277 292z"/>
<path style="fill:#f8fdeb; stroke:none;" d="M279 292L279 299L280 299L279 296L279 292z"/>
<path style="fill:#afd372; stroke:none;" d="M285.333 292.667L285.667 293.333L285.333 292.667z"/>
<path style="fill:#7fb720; stroke:none;" d="M314.667 292.333L315.333 292.667L314.667 292.333z"/>
<path style="fill:#92b357; stroke:none;" d="M320 292L318 302L318 303C322.307 302.077 321.84 295.193 320 292z"/>
<path style="fill:#afd372; stroke:none;" d="M333 292L334 293L333 292z"/>
<path style="fill:#92b357; stroke:none;" d="M334 292L334 299L335 299L336 292L334 292z"/>
<path style="fill:#afd372; stroke:none;" d="M345 292L346 293L345 292M382 292L383 293L382 292M394 292L395 293L394 292M402 292L403 293L402 292M421 292L422 293L421 292z"/>
<path style="fill:#92b357; stroke:none;" d="M424 292L424 302L425 302L424 292M433.333 292.667L433.667 293.333L433.333 292.667z"/>
<path style="fill:#afd372; stroke:none;" d="M434 292L434 299L435 299L434 292M436.333 292.667L436.667 293.333L436.333 292.667z"/>
<path style="fill:#7fb720; stroke:none;" d="M440 292L441 293L440 292z"/>
<path style="fill:#f8fdeb; stroke:none;" d="M444.333 292.667L444.667 293.333L444.333 292.667z"/>
<path style="fill:#afd372; stroke:none;" d="M458 292L459 293L458 292M465 292L466 293L465 292M251.333 293.667L251.667 294.333L251.333 293.667z"/>
<path style="fill:#d5eea6; stroke:none;" d="M257 293L258 294L257 293z"/>
<path style="fill:#92b357; stroke:none;" d="M259 293L257 301L260 303L265 303L265 302L259 293z"/>
<path style="fill:#d5eea6; stroke:none;" d="M260 293L264 300L262 301L262 302L265 301L260 293z"/>
<path style="fill:#afd372; stroke:none;" d="M264 293L265 294L264 293z"/>
<path style="fill:#92b357; stroke:none;" d="M267.333 293.667L267.667 294.333L267.333 293.667M288 293L288 296L289 296L288 293z"/>
<path style="fill:#7fb720; stroke:none;" d="M312 293L313 294L312 293z"/>
<path style="fill:#afd372; stroke:none;" d="M316 293L317 294L316 293z"/>
<path style="fill:#f8fdeb; stroke:none;" d="M318 293L317 295L319 295L318 293z"/>
<path style="fill:#92b357; stroke:none;" d="M344 293L344 297L345 297L344 293z"/>
<path style="fill:#afd372; stroke:none;" d="M353 293L354 294L353 293z"/>
<path style="fill:#92b357; stroke:none;" d="M393 293L394 301L395 301L393 293z"/>
<path style="fill:#afd372; stroke:none;" d="M419.667 293.333L420.333 293.667L419.667 293.333z"/>
<path style="fill:#92b357; stroke:none;" d="M455 293L458 299L455 293z"/>
<path style="fill:#afd372; stroke:none;" d="M456 293L457 294L456 293z"/>
<path style="fill:#92b357; stroke:none;" d="M465 293L464 299L465 299L465 293z"/>
<path style="fill:#afd372; stroke:none;" d="M254.333 294.667L254.667 295.333L254.333 294.667M256.333 294.667L256.667 295.333L256.333 294.667z"/>
<path style="fill:#d5eea6; stroke:none;" d="M258 294L259 295L258 294z"/>
<path style="fill:#afd372; stroke:none;" d="M260 294L261 295L260 294z"/>
<path style="fill:#f8fdeb; stroke:none;" d="M285.667 294.333L286.333 294.667L285.667 294.333z"/>
<path style="fill:#afd372; stroke:none;" d="M312 294L313 295L312 294z"/>
<path style="fill:#f8fdeb; stroke:none;" d="M346 294L346 296L348 296L346 294M395 294L395 296L397 296L395 294M398 294L399 295L398 294M403 294L404 295L403 294M420.667 294.333L421.333 294.667L420.667 294.333z"/>
<path style="fill:#afd372; stroke:none;" d="M443.333 294.667L443.667 295.333L443.333 294.667z"/>
<path style="fill:#f8fdeb; stroke:none;" d="M458 294L462 301L458 294z"/>
<path style="fill:#afd372; stroke:none;" d="M459 294L460 295L459 294M462 294L460 298L462 294z"/>
<path style="fill:#92b357; stroke:none;" d="M251 295L250 297L252 297L251 295z"/>
<path style="fill:#afd372; stroke:none;" d="M258 295L259 296L258 295M266 295L267 296L266 295z"/>
<path style="fill:#d5eea6; stroke:none;" d="M277.333 295.667L277.667 296.333L277.333 295.667z"/>
<path style="fill:#afd372; stroke:none;" d="M315 295L315 296L318 297L315 295z"/>
<path style="fill:#f8fdeb; stroke:none;" d="M319 295L319 299L320 299L319 295M349 295L350 296L349 295M352.667 295.333L353.333 295.667L352.667 295.333z"/>
<path style="fill:#afd372; stroke:none;" d="M356 295L357 296L356 295z"/>
<path style="fill:#f8fdeb; stroke:none;" d="M401 295L402 296L401 295z"/>
<path style="fill:#7fb720; stroke:none;" d="M440 295L441 296L440 295z"/>
<path style="fill:#f8fdeb; stroke:none;" d="M444 295L445 296L444 295z"/>
<path style="fill:#92b357; stroke:none;" d="M446.333 295.667L446.667 296.333L446.333 295.667z"/>
<path style="fill:#d5eea6; stroke:none;" d="M459.333 295.667L459.667 296.333L459.333 295.667z"/>
<path style="fill:#f8fdeb; stroke:none;" d="M463 295L464 296L463 295z"/>
<path style="fill:#afd372; stroke:none;" d="M252 296L252 299L253 299L252 296M262 296L263 297L262 296z"/>
<path style="fill:#f8fdeb; stroke:none;" d="M264 296L264 299L265 299L264 296z"/>
<path style="fill:#92b357; stroke:none;" d="M266.333 296.667L266.667 297.333L266.333 296.667z"/>
<path style="fill:#d5eea6; stroke:none;" d="M279 296L280 297L279 296z"/>
<path style="fill:#92b357; stroke:none;" d="M280 296L281 300L287 300L287 299L284 299L284 298L288 297L280 296M313 296L313 300L317 300L317 296L313 296M348 296L355 300L356 297L348 296M377.667 296.333L378.333 296.667L377.667 296.333M396 296C397.898 299.506 400.172 299.801 404 300L406 297L396 296z"/>
<path style="fill:#afd372; stroke:none;" d="M414 296L415 297L414 296z"/>
<path style="fill:#92b357; stroke:none;" d="M416 297L416 299C419.137 299.494 420 299.036 421 296L416 297z"/>
<path style="fill:#afd372; stroke:none;" d="M421 296L421 299L422 299L421 296z"/>
<path style="fill:#92b357; stroke:none;" d="M433 296L432 298L434 298L433 296z"/>
<path style="fill:#7fb720; stroke:none;" d="M441 296L440 299L441 296z"/>
<path style="fill:#afd372; stroke:none;" d="M457.333 296.667L457.667 297.333L457.333 296.667z"/>
<path style="fill:#f8fdeb; stroke:none;" d="M462 296L462 299L463 299L462 296z"/>
<path style="fill:#afd372; stroke:none;" d="M255.333 297.667L255.667 298.333L255.333 297.667M263 297L264 298L263 297M277.333 297.667L277.667 298.333L277.333 297.667z"/>
<path style="fill:#f8fdeb; stroke:none;" d="M346 297L347 298L346 297z"/>
<path style="fill:#92b357; stroke:none;" d="M413.333 297.667L413.667 298.333L413.333 297.667z"/>
<path style="fill:#afd372; stroke:none;" d="M436 297L437 298L436 297z"/>
<path style="fill:#7fb720; stroke:none;" d="M438 297L439 298L438 297z"/>
<path style="fill:#d5eea6; stroke:none;" d="M458 297L456 307C459.477 305.299 464.449 301.181 460 298L462 301L458 297z"/>
<path style="fill:#f8fdeb; stroke:none;" d="M256 298L257 299L256 298z"/>
<path style="fill:#afd372; stroke:none;" d="M265.333 298.667L265.667 299.333L265.333 298.667z"/>
<path style="fill:#d5eea6; stroke:none;" d="M278 298C279.882 301.59 284.016 303.414 287 300L278 298z"/>
<path style="fill:#afd372; stroke:none;" d="M280 298L281 299L280 298M310.333 298.667L310.667 299.333L310.333 298.667M312 298L313 299L312 298M345 298L346 299L345 298M348 298L349 299L348 298z"/>
<path style="fill:#92b357; stroke:none;" d="M377 298L378 299L377 298z"/>
<path style="fill:#afd372; stroke:none;" d="M394.333 298.667L394.667 299.333L394.333 298.667z"/>
<path style="fill:#f8fdeb; stroke:none;" d="M395 298L396 299L395 298z"/>
<path style="fill:#afd372; stroke:none;" d="M442 298L443 299L442 298z"/>
<path style="fill:#f8fdeb; stroke:none;" d="M444.333 298.667L444.667 299.333L444.333 298.667z"/>
<path style="fill:#92b357; stroke:none;" d="M446 298L447 299L446 298z"/>
<path style="fill:#afd372; stroke:none;" d="M463.333 298.667L463.667 299.333L463.333 298.667z"/>
<path style="fill:#92b357; stroke:none;" d="M252 299L253 300L252 299z"/>
<path style="fill:#f8fdeb; stroke:none;" d="M254 299L254 301L256 301L254 299z"/>
<path style="fill:#afd372; stroke:none;" d="M257 299L258 300L257 299M261.333 299.667L261.667 300.333L261.333 299.667z"/>
<path style="fill:#92b357; stroke:none;" d="M277 299L278 300L277 299z"/>
<path style="fill:#7fb720; stroke:none;" d="M282 299L283 300L282 299z"/>
<path style="fill:#f8fdeb; stroke:none;" d="M318.333 299.667L318.667 300.333L318.333 299.667z"/>
<path style="fill:#92b357; stroke:none;" d="M345 299L346 300L345 299z"/>
<path style="fill:#afd372; stroke:none;" d="M349 299L350 300L349 299M397 299L398 300L397 299z"/>
<path style="fill:#7fb720; stroke:none;" d="M399 299L400 300L399 299z"/>
<path style="fill:#afd372; stroke:none;" d="M414 299L416 302L414 299z"/>
<path style="fill:#f8fdeb; stroke:none;" d="M415 299L416 300L415 299z"/>
<path style="fill:#afd372; stroke:none;" d="M416 299L417 300L416 299M420 299L421 300L420 299z"/>
<path style="fill:#f8fdeb; stroke:none;" d="M422.333 299.667L422.667 300.333L422.333 299.667z"/>
<path style="fill:#92b357; stroke:none;" d="M434 299L435 300L434 299z"/>
<path style="fill:#afd372; stroke:none;" d="M437 299L438 300L437 299M441 299L442 300L441 299M458 299L459 300L458 299M253.333 300.667L253.667 301.333L253.333 300.667z"/>
<path style="fill:#f8fdeb; stroke:none;" d="M262.667 300.333L263.333 300.667L262.667 300.333z"/>
<path style="fill:#92b357; stroke:none;" d="M265 300L266 301L265 300z"/>
<path style="fill:#afd372; stroke:none;" d="M278.667 300.333L279.333 300.667L278.667 300.333M283 300L284 301L283 300M287.333 300.667L287.667 301.333L287.333 300.667z"/>
<path style="fill:#92b357; stroke:none;" d="M310 300L311 301L310 300z"/>
<path style="fill:#afd372; stroke:none;" d="M313.667 300.333L314.333 300.667L313.667 300.333z"/>
<path style="fill:#92b357; stroke:none;" d="M333.333 300.667L333.667 301.333L333.333 300.667z"/>
<path style="fill:#afd372; stroke:none;" d="M346.667 300.333L347.333 300.667L346.667 300.333M351 300L352 301L351 300M355.333 300.667L355.667 301.333L355.333 300.667z"/>
<path style="fill:#92b357; stroke:none;" d="M378.333 300.667L378.667 301.333L378.333 300.667z"/>
<path style="fill:#afd372; stroke:none;" d="M399.667 300.333L400.333 300.667L399.667 300.333M404.333 300.667L404.667 301.333L404.333 300.667M417.667 300.333L418.333 300.667L417.667 300.333M435.333 300.667L435.667 301.333L435.333 300.667M439 300L440 301L439 300z"/>
<path style="fill:#92b357; stroke:none;" d="M458 300L459 301L458 300M463 300L461 305L462 305L463 300z"/>
<path style="fill:#afd372; stroke:none;" d="M256 301L257 302L256 301M264 301L265 302L264 301z"/>
<path style="fill:#92b357; stroke:none;" d="M278 301L280 303L280 301L278 301z"/>
<path style="fill:#afd372; stroke:none;" d="M311 301L312 302L311 301M317 301L318 302L317 301z"/>
<path style="fill:#92b357; stroke:none;" d="M346.667 301.333L347.333 301.667L346.667 301.333M395 301L396 302L395 301z"/>
<path style="fill:#afd372; stroke:none;" d="M396 301L397 302L396 301z"/>
<path style="fill:#92b357; stroke:none;" d="M414 301L415 302L414 301z"/>
<path style="fill:#afd372; stroke:none;" d="M421 301L422 302L421 301M442.667 301.333L443.333 301.667L442.667 301.333M462 301L463 302L462 301z"/>
<path style="fill:#92b357; stroke:none;" d="M253 302L253 303L257 303L253 302M281 302L281 304L283 302L281 302z"/>
<path style="fill:#afd372; stroke:none;" d="M283.667 302.333L284.333 302.667L283.667 302.333z"/>
<path style="fill:#92b357; stroke:none;" d="M285.667 302.333L286.333 302.667L285.667 302.333M311 302L311 303L316 303L311 302M331 302L332 303L331 302z"/>
<path style="fill:#afd372; stroke:none;" d="M332 302L333 303L332 302z"/>
<path style="fill:#92b357; stroke:none;" d="M348 302L348 303L356 304L348 302M379 302L380 303L379 302M397 302L397 303L400 303L397 302z"/>
<path style="fill:#afd372; stroke:none;" d="M400 302L401 303L400 302z"/>
<path style="fill:#92b357; stroke:none;" d="M401 302L404 304L401 302M415 304L423 303L415 304z"/>
<path style="fill:#7fb720; stroke:none;" d="M421 302L422 303L421 302z"/>
<path style="fill:#afd372; stroke:none;" d="M423 302L424 303L423 302z"/>
<path style="fill:#92b357; stroke:none;" d="M437 302L437 303L442 303L442 302L437 302z"/>
<path style="fill:#afd372; stroke:none;" d="M438.667 302.333L439.333 302.667L438.667 302.333z"/>
<path style="fill:#92b357; stroke:none;" d="M444.667 302.333L445.333 302.667L444.667 302.333z"/>
<path style="fill:#afd372; stroke:none;" d="M458 302L459 303L458 302M461 302L462 303L461 302z"/>
<path style="fill:#92b357; stroke:none;" d="M284 303L285 304L284 303M317 303L318 304L317 303M443 303L444 304L443 303z"/>
<path style="fill:#afd372; stroke:none;" d="M457 303L458 304L457 303M456 304L457 305L456 304M460 304L461 305L460 304z"/>
<path style="fill:#92b357; stroke:none;" d="M463 304L464 305L463 304z"/>
<path style="fill:#afd372; stroke:none;" d="M459 305L460 306L459 305M458 306L459 307L458 306M456 307L457 308L456 307z"/>
<path style="fill:#92b357; stroke:none;" d="M457 307L458 308L457 307z"/>
</svg>
