<?xml version="1.0" standalone="yes"?>
<svg xmlns="http://www.w3.org/2000/svg" width="431" height="400">
<path style="fill:#ffffff; stroke:none;" d="M0 0L0 400L431 400L431 0L0 0z"/>
<path style="fill:#bba1a9; stroke:none;" d="M187 38L188 38L186 30L273 30C281.607 30 299.038 26.7259 306 32C306.809 27.0927 283.228 29 279 29L208 29C198.879 29 182.813 24.8686 187 38z"/>
<path style="fill:#9a455d; stroke:none;" d="M186 30L213 114L214 114L247 50L268 95L279 113L306 30L186 30z"/>
<path style="fill:#bba1a9; stroke:none;" d="M305.333 33.6667L305.667 34.3333L305.333 33.6667M304 35L304 38L305 38L304 35M303 38L302 44L303 44L303 38M188 39L189 45L190 45L188 39M190 45L190 48L191 48L190 45M301.333 45.6667L301.667 46.3333L301.333 45.6667M300 47L300 50L301 50L300 47M191.333 48.6667L191.667 49.3333L191.333 48.6667M246 50L243 56L244 56L246 50M299 50L298 56L299 56L299 50M192 51L193 57L194 57L192 51M247 52L249 58L250 58L247 52M242.333 56.6667L242.667 57.3333L242.333 56.6667M194.333 57.6667L194.667 58.3333L194.333 57.6667M297.333 57.6667L297.667 58.3333L297.333 57.6667M241 58L239 64L240 64L241 58M250 59L251 60L250 59M296 59L295 65L296 65L296 59M195.333 60.6667L195.667 61.3333L195.333 60.6667M251 60L252 65L253 65L251 60M196 63L197 69L198 69L196 63M238 64L236 71L237 71L238 64M253.333 65.6667L253.667 66.3333L253.333 65.6667M294 65L294 68L295 68L294 65M254.333 67.6667L254.667 68.3333L254.333 67.6667M293 68L293 71L294 71L293 68M198.333 69.6667L198.667 70.3333L198.333 69.6667M255.333 69.6667L255.667 70.3333L255.333 69.6667M235 71L233 77L234 77L235 71M256.333 71.6667L256.667 72.3333L256.333 71.6667M292 71L291 77L292 77L292 71M199 72L201 81L202 81L199 72M257.333 73.6667L257.667 74.3333L257.333 73.6667M258.333 75.6667L258.667 76.3333L258.333 75.6667M232.333 77.6667L232.667 78.3333L232.333 77.6667M259.333 77.6667L259.667 78.3333L259.333 77.6667M290.333 78.6667L290.667 79.3333L290.333 78.6667M231 79L230 83L231 83L231 79M260.333 79.6667L260.667 80.3333L260.333 79.6667M289 80L288 86L289 86L289 80M202.333 81.6667L202.667 82.3333L202.333 81.6667M261.333 81.6667L261.667 82.3333L261.333 81.6667M229.333 83.6667L229.667 84.3333L229.333 83.6667M262 83L264 89L265 89L262 83M203 84L205 92L206 92L203 84M228.333 85.6667L228.667 86.3333L228.333 85.6667M287 86L287 89L288 89L287 86M227.333 87.6667L227.667 88.3333L227.333 87.6667M226.333 89.6667L226.667 90.3333L226.333 89.6667M265 90L267 96L268 96L265 90M286 90L285 95L286 95L286 90M225.333 91.6667L225.667 92.3333L225.333 91.6667M206.333 93.6667L206.667 94.3333L206.333 93.6667M224.333 93.6667L224.667 94.3333L224.333 93.6667M223.333 95.6667L223.667 96.3333L223.333 95.6667M284 95L284 98L285 98L284 95M207 96L208 102L209 102L207 96M268 96L269 97L268 96M222.333 97.6667L222.667 98.3333L222.333 97.6667M269 98L270 102L271 102L269 98M283.333 98.6667L283.667 99.3333L283.333 98.6667M221.333 99.6667L221.667 100.333L221.333 99.6667M220.333 101.667L220.667 102.333L220.333 101.667M282 101L281 107L282 107L282 101M209.333 102.667L209.667 103.333L209.333 102.667M271.333 102.667L271.667 103.333L271.333 102.667M219 103L218 107L219 107L219 103M272.333 104.667L272.667 105.333L272.333 104.667M210.333 105.667L210.667 106.333L210.333 105.667M273.333 106.667L273.667 107.333L273.333 106.667M211 107L212 114L213 114L211 107M280 107L280 110L281 110L280 107M217 108L218 109L217 108M274.333 108.667L274.667 109.333L274.333 108.667M216 109L213 115C215.64 113.464 216.818 112.061 216 109M275.333 110.667L275.667 111.333L275.333 110.667M279 110L279 113L280 113L279 110M276 112L279 115L276 112M213 164L213 163C187.571 167.721 184.047 134.074 210 134C190.445 125.797 181.306 161.065 203 165.277C206.469 165.951 209.736 165.103 213 164M273 144L274 144C280.982 130.58 302.094 131.778 302.514 149C302.944 166.663 280.878 167.248 274 154C272.669 160.263 280.587 164.653 286 164.955C294.605 165.435 301.575 160.644 303.467 152C307.629 132.984 279.228 125.692 273 144M107 153L108 153C108.824 135.011 134.446 127.21 137.656 148C140.473 166.25 115.295 170.033 109 154C107.447 159.938 114.673 165.082 120 165.811C128.746 167.008 137.362 162.218 138.786 153C140.881 139.441 125.934 128.206 114.015 136.653C108.412 140.624 107.134 146.538 107 153z"/>
<path style="fill:#9a455d; stroke:none;" d="M201 134.653C182.344 140.51 192.197 168.848 210.999 163.427C229.33 158.143 219.581 128.819 201 134.653z"/>
<path style="fill:#bba1a9; stroke:none;" d="M211.667 134.333L212.333 134.667L211.667 134.333z"/>
<path style="fill:#9a455d; stroke:none;" d="M283 134.653C264.436 140.476 274.296 169.655 292.999 163.297C310.999 157.178 301.058 128.989 283 134.653M119 135.533C100.43 140.024 108.056 168.929 127 164.606C145.837 160.307 138.066 130.922 119 135.533z"/>
<path style="fill:#bba1a9; stroke:none;" d="M213 135L216 137L213 135M216 137L217 138L216 137M217 138L218 139L217 138M218.333 139.667L218.667 140.333L218.333 139.667M219.333 141.667L219.667 142.333L219.333 141.667M220.333 143.667L220.667 144.333L220.333 143.667M272 145L272 153L273 153L272 145M221 147L221 151L222 151L221 147M220.333 153.667L220.667 154.333L220.333 153.667M219 155L218 159L219 159L219 155M219 180L219 181C232.458 176.703 235.46 155.886 248.995 157.059C256.222 157.684 258.492 169.085 263.174 173.907C273.074 184.103 286.936 185.671 300 182C291.214 179.924 283.185 184.275 274 179.723C262.088 173.819 255.994 149.344 240.278 156.603C236.636 158.285 235.455 164.856 233.211 168C229.447 173.273 224.425 176.664 219 180z"/>
<path style="fill:#9a455d; stroke:none;" d="M115 184C109.562 187.565 107.16 197.13 104.731 203C94.2096 228.427 96.472 264.426 128 272.391C148.252 277.508 170.554 265.323 188 256.6C213.579 243.811 237.579 233.917 266 229.728C280.697 227.562 296.241 222.466 303.088 208C305.314 203.298 309.964 184.222 302.721 181.708C299.351 180.538 294.458 183.452 291 183.826C283.064 184.686 275.581 182.283 269 177.895C259.516 171.571 255.505 151.27 241.225 157.603C235.719 160.045 232.24 171.684 226.961 175.985C219.806 181.813 208.732 180.516 202.598 185.603C198.051 189.374 194.971 195.633 190.91 200C178.98 212.828 163.11 225.754 146 230.88C139.796 232.739 134.248 227.973 130 223.957C117.56 212.195 115 200.44 115 184z"/>
<path style="fill:#bba1a9; stroke:none;" d="M217 159L218 160L217 159M216 160L217 161L216 160M215 161L216 162L215 161M214 162L215 163L214 162M301 180L305 182L304 179L301 180M216.667 181.333L217.333 181.667L216.667 181.333M203 183L203 184L216 183L203 183M113 183L113 184L115 190L116 190L117 184L113 183M305.333 183.667L305.667 184.333L305.333 183.667M112.333 184.667L112.667 185.333L112.333 184.667M202 184L203 185L202 184M111.333 186.667L111.667 187.333L111.333 186.667M201 186L202 187L201 186M306 186L306 200L307 200L306 186M200.333 187.667L200.667 188.333L200.333 187.667M110 189L111 190L110 189M199 189L200 190L199 189M109 190L108 195L109 195L109 190M198 190L199 191L198 190M197 191L196 194L197 191M115 194L117 207L118 207L115 194M195 194L196 195L195 194M107.333 195.667L107.667 196.333L107.333 195.667M194 195L195 196L194 195M193 196L192 199L193 196M106.333 197.667L106.667 198.333L106.333 197.667M105 199L104 204L105 204L105 199M191 199L192 200L191 199M189 200L189 202L191 200L189 200M305.333 201.667L305.667 202.333L305.333 201.667M188 202L189 203L188 202M187 203L188 204L187 203M103.333 204.667L103.667 205.333L103.333 204.667M186 204L187 205L186 204M304 204L304 207L305 207L304 204M185 205L186 206L185 205M184 206L185 207L184 206M102 207L100 217L101 217L102 207M118.333 207.667L118.667 208.333L118.333 207.667M181 210L184 207L181 210M303.333 207.667L303.667 208.333L303.333 207.667M119 209L121 215L122 215L119 209M302 209L303 210L302 209M179 210L178 212L180 212L179 210M301 211L302 212L301 211M177 212L178 213L177 212M300 212L299 215L300 212M176 213L177 214L176 213M173 216L176 214L173 216M122 215L124 218L122 215M298 215L299 216L298 215M170 218L173 216L170 218M297 216L298 217L297 216M296 217L297 218L296 217M124 218L125 219L124 218M169 218L170 219L169 218M295 218L296 219L295 218M99 219L98 240L99 240L99 219M125 219L126 220L125 219M167.667 219.333L168.333 219.667L167.667 219.333M294 219L295 220L294 219M126 220L127 221L126 220M166 220L167 221L166 220M291 222L294 220L291 222M127 221L128 222L127 221M164 221L165 222L164 221M128 222L129 223L128 222M162.667 222.333L163.333 222.667L162.667 222.333M286 224L286 225L291 223L286 224M129 223L130 224L129 223M160.667 223.333L161.333 223.667L160.667 223.333M130 224L131 225L130 224M159 224L160 225L159 224M131 225L132 226L131 225M157 225L158 226L157 225M277 227L277 228L286 226L277 227M132 226L135 228L132 226M152 227L152 228L157 227L152 227M135.667 228.333L136.333 228.667L135.667 228.333M150.667 228.333L151.333 228.667L150.667 228.333M273 228L273 229L277 229L273 228M137 229L137 230C141.733 232.265 145.131 231.543 150 230L150 229L137 229M255 231L255 232L272 230L255 231M249 232L249 233L253 233L249 232M239 234L239 235L248 234L239 234M236 235L236 236L239 236L236 235M233.667 236.333L234.333 236.667L233.667 236.333M225 239L225 240L233 238L225 239M99 240L99 244L100 244L99 240M222.667 240.333L223.333 240.667L222.667 240.333M219 241L219 242L222 242L219 241M217.667 242.333L218.333 242.667L217.667 242.333M215 243L216 244L215 243M210 245L210 246L214 245L210 245M100.333 246.667L100.667 247.333L100.333 246.667M208.667 246.333L209.333 246.667L208.667 246.333M206.667 247.333L207.333 247.667L206.667 247.333M101 248L101 251L102 251L101 248M204.667 248.333L205.333 248.667L204.667 248.333M202.667 249.333L203.333 249.667L202.667 249.333M200.667 250.333L201.333 250.667L200.667 250.333M102.333 251.667L102.667 252.333L102.333 251.667M198.667 251.333L199.333 251.667L198.667 251.333M194 253L194 254L198 253L194 253M103 254L104 255L103 254M192.667 254.333L193.333 254.667L192.667 254.333M104.333 255.667L104.667 256.333L104.333 255.667M190.667 255.333L191.333 255.667L190.667 255.333M186 257L186 258L190 257L186 257M105 257L107 260L105 257M184.667 258.333L185.333 258.667L184.667 258.333M182.667 259.333L183.333 259.667L182.667 259.333M107 260L108 261L107 260M178 261L178 262L182 261L178 261M108 261L109 262L108 261M109 262L110 263L109 262M171 264L171 265L177 263L171 264M110 263L111 264L110 263M111 264L114 266L111 264M169.667 265.333L170.333 265.667L169.667 265.333M114 266L115 267L114 266M161 268L161 269L169 267L161 268M115.667 267.333L116.333 267.667L115.667 267.333M117 268L118 269L117 268M119 269L120 270L119 269M158 269L158 270L161 270L158 269M120 270L120 271L126 272L126 271L120 270M155 270L155 271L158 271L155 270M151 271L151 272L155 272L151 271M126.667 272.333L127.333 272.667L126.667 272.333M148 272L148 273L151 273L148 272M130 273L130 274L145 274L130 273M142 356L143 356L143 321C143 317.481 141.881 311.319 145.318 309.028C149.905 305.97 155.488 308.893 155.941 314.005C157.225 328.473 156.816 344.631 155 359C160.264 350.212 157 333.062 157 323C157 319.03 157.82 313.982 156.682 310.148C155.493 306.143 146.641 305.682 143.742 308.028C140.714 310.478 142 317.583 142 321L142 356z"/>
<path style="fill:#454545; stroke:none;" d="M143 355L144 355L144 309L155 309L155 355C158.712 346.153 158.446 320.456 155.682 311.148C154.564 307.383 147.403 306.811 144.603 309.028C141.784 311.261 143 317.849 143 321L143 355z"/>
<path style="fill:#040404; stroke:none;" d="M144 309C144 322.319 144.339 335.687 143.985 349C143.847 354.213 141.992 360.274 135.999 361.242C129.68 362.264 129.33 356.8 125.441 354.027C122.811 352.152 118.059 353 115 353C115.945 371.421 142.725 377.25 152.517 361.91C155.902 356.606 155 350.004 155 344L155 309L144 309z"/>
<path style="fill:#bba1a9; stroke:none;" d="M261 323L256 323L256 324C262.778 323.472 261.999 318.656 262 313L274 313L274 324L281 324L281 323L275 323C274.999 317.247 269.287 304.439 262.028 313.603C260.231 315.871 261 320.297 261 323z"/>
<path style="fill:#454545; stroke:none;" d="M262 313L262 323L263 323L262 313z"/>
<path style="fill:#040404; stroke:none;" d="M263 313C262.995 319.031 262.92 323.919 256 325L256 332C273.127 334.674 251.016 377.948 278.852 369.682C281.446 368.912 282.647 365.884 280.968 363.587C279.259 361.251 275.805 361.44 274.179 358.772C269.613 351.279 270.992 332.55 281 332L281 325C272.959 324.558 273.001 319.936 273 313L263 313z"/>
<path style="fill:#454545; stroke:none;" d="M273 313L273 324L274 324L273 313z"/>
<path style="fill:#bba1a9; stroke:none;" d="M180 323L180 324L193 324L180 323M225 323L225 324L239 324L225 323z"/>
<path style="fill:#9a455d; stroke:none;" d="M230.667 323.333L231.333 323.667L230.667 323.333M261 323L262 324L261 323z"/>
<path style="fill:#bba1a9; stroke:none;" d="M177.667 324.333L178.333 324.667L177.667 324.333z"/>
<path style="fill:#454545; stroke:none;" d="M179 324L177 325L177 326L179 324z"/>
<path style="fill:#040404; stroke:none;" d="M200 357C191.478 363.664 179.29 363.611 177 351L206 351C205.999 345.535 205.966 340.16 203.87 335.001C199.023 323.069 182.597 320.658 173.044 328.415C163.489 336.174 162.539 353.277 169.688 362.91C177.249 373.097 211.556 372.535 200 357z"/>
<path style="fill:#454545; stroke:none;" d="M192 324L192 325L199 328L199 327L192 324z"/>
<path style="fill:#bba1a9; stroke:none;" d="M194 324L195 325L194 324M222.667 324.333L223.333 324.667L222.667 324.333z"/>
<path style="fill:#454545; stroke:none;" d="M224 324L220 326L220 327L225 325L224 324z"/>
<path style="fill:#040404; stroke:none;" d="M223 357L213 357C214.16 372.393 241.748 375.493 248.86 362.96C259.019 345.055 231.744 347.466 225.952 339.671C221.694 333.938 231.816 331.061 235.791 333.16C241.245 336.04 243.551 337 250 337C247.157 321.306 218.058 318.1 214.398 335C210.559 352.73 234.442 346.007 238.477 356.808C241.618 365.215 225.995 363.216 223 357z"/>
<path style="fill:#454545; stroke:none;" d="M238 324L238 325L242 326L242 325L238 324z"/>
<path style="fill:#bba1a9; stroke:none;" d="M240.667 324.333L241.333 324.667L240.667 324.333M254 324C254.005 330.179 254.007 333.77 261 334L261 362L262 362C262 353.532 266.349 333.373 255 333L254 324z"/>
<path style="fill:#454545; stroke:none;" d="M255 324L255 333L261 333L261 332L256 332L256 325L261 325L255 324M275 324L275 325L281 325L281 332C268.877 332.294 271.863 352.022 274 361C275.805 353.484 272.221 344.701 274.318 337.059C275.58 332.46 282.221 333.478 281.793 328.039C281.489 324.174 278.064 324.101 275 324z"/>
<path style="fill:#9a455d; stroke:none;" d="M281 324L282 325L281 324z"/>
<path style="fill:#bba1a9; stroke:none;" d="M282 324L282 333L275 333L275 334C281.584 333.922 284.801 330.677 282 324M175 325L169 331L176 326L175 325z"/>
<path style="fill:#9a455d; stroke:none;" d="M176 325L177 326L176 325z"/>
<path style="fill:#bba1a9; stroke:none;" d="M196.667 325.333L197.333 325.667L196.667 325.333M220 325L221 326L220 325z"/>
<path style="fill:#9a455d; stroke:none;" d="M242 325L243 326L242 325z"/>
<path style="fill:#bba1a9; stroke:none;" d="M243 325L243 326L249 330L243 325z"/>
<path style="fill:#454545; stroke:none;" d="M175 326L176 327L175 326z"/>
<path style="fill:#bba1a9; stroke:none;" d="M198 326L199 327L198 326M214 332L215 332L220 327L214 332z"/>
<path style="fill:#454545; stroke:none;" d="M243 326L244 327L243 326M173 327L174 328L173 327z"/>
<path style="fill:#bba1a9; stroke:none;" d="M199 327L200 328L199 327z"/>
<path style="fill:#454545; stroke:none;" d="M218 327L219 328L218 327M245 327L246 328L245 327M172 328L173 329L172 328z"/>
<path style="fill:#9a455d; stroke:none;" d="M200 328L201 329L200 328z"/>
<path style="fill:#bba1a9; stroke:none;" d="M201 328L204 334L205 334L201 328z"/>
<path style="fill:#454545; stroke:none;" d="M217 328L218 329L217 328M246 328L247 329L246 328M171 329L172 330L171 329M200 329L201 330L200 329M216 329L217 330L216 329M247 329L248 330L247 329M170 330L171 331L170 330M201 330L202 331L201 330M215.333 330.667L215.667 331.333L215.333 330.667z"/>
<path style="fill:#9a455d; stroke:none;" d="M248 330L249 331L248 330M169 331L170 332L169 331z"/>
<path style="fill:#454545; stroke:none;" d="M202 331L203 332L202 331M248 331L249 334L250 334L248 331z"/>
<path style="fill:#bba1a9; stroke:none;" d="M249 331L250 332L249 331M168 332L167 334L168 332z"/>
<path style="fill:#9a455d; stroke:none;" d="M203 332L204 333L203 332z"/>
<path style="fill:#454545; stroke:none;" d="M214.333 332.667L214.667 333.333L214.333 332.667M227 332L225 335L227 332z"/>
<path style="fill:#bba1a9; stroke:none;" d="M228 332L228 333L236 334L228 332z"/>
<path style="fill:#454545; stroke:none;" d="M235 332L236 333L235 332z"/>
<path style="fill:#9a455d; stroke:none;" d="M281 332L282 333L281 332z"/>
<path style="fill:#454545; stroke:none;" d="M168 333L169 334L168 333M181 335L184 334L181 335z"/>
<path style="fill:#bba1a9; stroke:none;" d="M184 333L184 334L188 334L184 333z"/>
<path style="fill:#9a455d; stroke:none;" d="M188 333L189 334L188 333z"/>
<path style="fill:#454545; stroke:none;" d="M189 333L189 334L194 339L195 339L189 333M203 333L204 334L203 333z"/>
<path style="fill:#bba1a9; stroke:none;" d="M213 333L213 342L214 342L213 333M227 333L228 334L227 333z"/>
<path style="fill:#9a455d; stroke:none;" d="M236 333L238 335L236 333z"/>
<path style="fill:#454545; stroke:none;" d="M237 333L238 334L237 333z"/>
<path style="fill:#bba1a9; stroke:none;" d="M250 333L251 338C246.111 338 241.61 338.686 238 335L237 335C239.504 341.228 254.814 340.429 250 333z"/>
<path style="fill:#454545; stroke:none;" d="M261 333L262 334L261 333z"/>
<path style="fill:#9a455d; stroke:none;" d="M167 334L168 335L167 334z"/>
<path style="fill:#bba1a9; stroke:none;" d="M182 334L183 335L182 334z"/>
<path style="fill:#ffffff; stroke:none;" d="M179 343L194 342C191.316 331.81 179.604 332.004 179 343z"/>
<path style="fill:#bba1a9; stroke:none;" d="M189.667 334.333L190.333 334.667L189.667 334.333z"/>
<path style="fill:#9a455d; stroke:none;" d="M204 334L205 335L204 334z"/>
<path style="fill:#bba1a9; stroke:none;" d="M226 334L227 335L226 334z"/>
<path style="fill:#454545; stroke:none;" d="M262 334C262 345.022 258.201 362.698 268 370L262 334z"/>
<path style="fill:#bba1a9; stroke:none;" d="M274 334L274 359L275 359L274 334M166.333 335.667L166.667 336.333L166.333 335.667z"/>
<path style="fill:#454545; stroke:none;" d="M167.333 335.667L167.667 336.333L167.333 335.667M179 335L178 338L179 335z"/>
<path style="fill:#bba1a9; stroke:none;" d="M180 335L181 336L180 335M191 335L192 336L191 335z"/>
<path style="fill:#454545; stroke:none;" d="M204 335L205 341L206 341L204 335z"/>
<path style="fill:#bba1a9; stroke:none;" d="M205.333 335.667L205.667 336.333L205.333 335.667z"/>
<path style="fill:#454545; stroke:none;" d="M213 335L213 341L214 341L213 335z"/>
<path style="fill:#bba1a9; stroke:none;" d="M225 335C225.892 340.644 229.707 342.203 235 343L235 342L225 335z"/>
<path style="fill:#454545; stroke:none;" d="M238 335L239 336L238 335M250 335L239 337L239 338C241.789 338 251.7 339.509 250 335z"/>
<path style="fill:#bba1a9; stroke:none;" d="M192 336L193 337L192 336z"/>
<path style="fill:#9a455d; stroke:none;" d="M238 336L239 337L238 336z"/>
<path style="fill:#454545; stroke:none;" d="M166 337L167 338L166 337z"/>
<path style="fill:#bba1a9; stroke:none;" d="M179 337L180 338L179 337M193 337L193 343L193 337z"/>
<path style="fill:#454545; stroke:none;" d="M224 337L225 338L224 337z"/>
<path style="fill:#bba1a9; stroke:none;" d="M165 338L165 357L166 357L165 338M178 338L178 343L179 343L178 338z"/>
<path style="fill:#454545; stroke:none;" d="M177.333 339.667L177.667 340.333L177.333 339.667z"/>
<path style="fill:#9a455d; stroke:none;" d="M194 339L195 340L194 339z"/>
<path style="fill:#bba1a9; stroke:none;" d="M206 339L207 351L177 352L179 357L180 357L178 352C187.403 352 216.527 356.574 206 339z"/>
<path style="fill:#454545; stroke:none;" d="M225 339L225 341L227 341L225 339z"/>
<path style="fill:#9a455d; stroke:none;" d="M165 340L166 341L165 340z"/>
<path style="fill:#454545; stroke:none;" d="M165.333 341.667L165.667 342.333L165.333 341.667z"/>
<path style="fill:#9a455d; stroke:none;" d="M177.333 341.667L177.667 342.333L177.333 341.667z"/>
<path style="fill:#454545; stroke:none;" d="M214 341L218 347L214 341M227.667 341.333L228.333 341.667L227.667 341.333M206 342L206 351L207 351L206 342M230.667 342.333L231.333 342.667L230.667 342.333M178 343L178 344L194 344L178 343z"/>
<path style="fill:#9a455d; stroke:none;" d="M214 343L215 344L214 343z"/>
<path style="fill:#454545; stroke:none;" d="M233 343L233 344L240 345L233 343z"/>
<path style="fill:#bba1a9; stroke:none;" d="M237 343L237 344L240 344L237 343M214 344L215 345L214 344M240 344L240 345L246 347L246 346L240 344M215 345L216 346L215 345z"/>
<path style="fill:#454545; stroke:none;" d="M241.667 345.333L242.333 345.667L241.667 345.333z"/>
<path style="fill:#bba1a9; stroke:none;" d="M216 346L217 347L216 346z"/>
<path style="fill:#454545; stroke:none;" d="M244 346L245 347L244 346z"/>
<path style="fill:#bba1a9; stroke:none;" d="M217 347L220 349L220 348L217 347z"/>
<path style="fill:#9a455d; stroke:none;" d="M218 347L219 348L218 347z"/>
<path style="fill:#454545; stroke:none;" d="M219 347L220 348L219 347M245 347L246 348L245 347z"/>
<path style="fill:#9a455d; stroke:none;" d="M246 347L248 349L246 347z"/>
<path style="fill:#bba1a9; stroke:none;" d="M247 347L248 348L247 347z"/>
<path style="fill:#454545; stroke:none;" d="M220 348L220 349L224 350L224 349L220 348z"/>
<path style="fill:#bba1a9; stroke:none;" d="M248 348L250 363L251 363C252.373 357.23 252.159 352.504 248 348M221 349L222 350L221 349M223 350L223 351L228 352L228 351L223 350z"/>
<path style="fill:#454545; stroke:none;" d="M225.667 350.333L226.333 350.667L225.667 350.333M248 350L249 351L248 350z"/>
<path style="fill:#bba1a9; stroke:none;" d="M113 356L114 356C116.922 350.701 124.078 350.701 127 356C129.261 349.099 114.539 348.948 113 356z"/>
<path style="fill:#454545; stroke:none;" d="M177 351L178 352L177 351z"/>
<path style="fill:#9a455d; stroke:none;" d="M228 351L229 352L228 351z"/>
<path style="fill:#454545; stroke:none;" d="M229 351L229 352L236 354L236 353L229 351M249.333 351.667L249.667 352.333L249.333 351.667M115 352L115 353L126 353L115 352M165 352L165 355L166 355L165 352z"/>
<path style="fill:#bba1a9; stroke:none;" d="M229 352L229 353L232 353L229 352z"/>
<path style="fill:#454545; stroke:none;" d="M114 353L114 356L115 356L114 353M126 353L127 354L126 353z"/>
<path style="fill:#9a455d; stroke:none;" d="M177 353L178 354L177 353z"/>
<path style="fill:#bba1a9; stroke:none;" d="M234 353L235 354L234 353z"/>
<path style="fill:#454545; stroke:none;" d="M250 353L250 356L251 356L250 353M177 354L178 355L177 354z"/>
<path style="fill:#bba1a9; stroke:none;" d="M236 354L236 362C238.943 359.074 238.943 356.926 236 354z"/>
<path style="fill:#454545; stroke:none;" d="M237 354L238 355L237 354z"/>
<path style="fill:#9a455d; stroke:none;" d="M155 355L156 356L155 355z"/>
<path style="fill:#bba1a9; stroke:none;" d="M211 355L212 362L213 362L212 356L224 357L211 355z"/>
<path style="fill:#454545; stroke:none;" d="M238 355L239 356L238 355z"/>
<path style="fill:#9a455d; stroke:none;" d="M114 356L115 357L114 356z"/>
<path style="fill:#454545; stroke:none;" d="M127 356L128 360L129 360L127 356z"/>
<path style="fill:#9a455d; stroke:none;" d="M142 356L143 357L142 356z"/>
<path style="fill:#454545; stroke:none;" d="M178 356L179 357L178 356z"/>
<path style="fill:#bba1a9; stroke:none;" d="M199 356L199 357L202 358L199 356z"/>
<path style="fill:#454545; stroke:none;" d="M212 356L212 360L213 360L213 357L223 357L212 356z"/>
<path style="fill:#bba1a9; stroke:none;" d="M114.333 357.667L114.667 358.333L114.333 357.667M128 357L129 358L128 357M141 357L137 360L137 361L141 357z"/>
<path style="fill:#454545; stroke:none;" d="M142 357L143 358L142 357M166 357L167 360L168 360L166 357M179 357L179 359L181 359L179 357z"/>
<path style="fill:#bba1a9; stroke:none;" d="M198 357L193 360L193 361L199 358L198 357z"/>
<path style="fill:#454545; stroke:none;" d="M200 357L201 358L200 357M223 357L229 363L229 362L223 357M239 357L240 358L239 357M115 358L116 362L117 362L115 358M141 358L142 359L141 358M154 358L153 361L154 358z"/>
<path style="fill:#9a455d; stroke:none;" d="M166 358L167 359L166 358z"/>
<path style="fill:#bba1a9; stroke:none;" d="M181 358L185 361L185 360L181 358z"/>
<path style="fill:#454545; stroke:none;" d="M198 358L199 359L198 358M201.333 358.667L201.667 359.333L201.333 358.667M250 358L250 361L251 361L250 358z"/>
<path style="fill:#bba1a9; stroke:none;" d="M129 359L129 360L133 361L133 360L129 359z"/>
<path style="fill:#454545; stroke:none;" d="M140 359L141 360L140 359z"/>
<path style="fill:#bba1a9; stroke:none;" d="M166 359L167 360L166 359z"/>
<path style="fill:#9a455d; stroke:none;" d="M181 359L182 360L181 359M196 359L197 360L196 359z"/>
<path style="fill:#454545; stroke:none;" d="M197 359L198 360L197 359z"/>
<path style="fill:#bba1a9; stroke:none;" d="M202 359L205 364L206 364L202 359M224 359L225 360L224 359z"/>
<path style="fill:#9a455d; stroke:none;" d="M115 360L116 361L115 360z"/>
<path style="fill:#454545; stroke:none;" d="M130 360L131 361L130 360M139 360L140 361L139 360z"/>
<path style="fill:#bba1a9; stroke:none;" d="M154 360L155 361L154 360z"/>
<path style="fill:#9a455d; stroke:none;" d="M167 360L168 361L167 360z"/>
<path style="fill:#454545; stroke:none;" d="M182 360L183 361L182 360M194.667 360.333L195.333 360.667L194.667 360.333z"/>
<path style="fill:#bba1a9; stroke:none;" d="M225 360L226 361L225 360z"/>
<path style="fill:#454545; stroke:none;" d="M238 360L239 361L238 360z"/>
<path style="fill:#bba1a9; stroke:none;" d="M275.667 360.333L276.333 360.667L275.667 360.333M115 361L116 362L115 361z"/>
<path style="fill:#454545; stroke:none;" d="M133 361L133 362L137 362L133 361z"/>
<path style="fill:#9a455d; stroke:none;" d="M153 361L154 362L153 361z"/>
<path style="fill:#bba1a9; stroke:none;" d="M167 361L168 364L169 364L167 361z"/>
<path style="fill:#454545; stroke:none;" d="M168 361L169 362L168 361M185 361L185 362L193 362L193 361L185 361z"/>
<path style="fill:#9a455d; stroke:none;" d="M188.667 361.333L189.333 361.667L188.667 361.333z"/>
<path style="fill:#454545; stroke:none;" d="M203 361L204 362L203 361z"/>
<path style="fill:#9a455d; stroke:none;" d="M226 361L227 362L226 361z"/>
<path style="fill:#bba1a9; stroke:none;" d="M227 361L228 362L227 361z"/>
<path style="fill:#454545; stroke:none;" d="M237 361L238 362L237 361M276 361L276 362C279.2 362.51 284.293 365.826 279.677 368.972C276.943 370.836 272.143 370 269 370C279.902 374.575 288.809 361.421 276 361z"/>
<path style="fill:#bba1a9; stroke:none;" d="M282 361L283 362L282 361M116 362L118 365L116 362z"/>
<path style="fill:#454545; stroke:none;" d="M152 362L151 364L152 362z"/>
<path style="fill:#bba1a9; stroke:none;" d="M153 362L154 363L153 362z"/>
<path style="fill:#454545; stroke:none;" d="M204 362L203 366L204 366L204 362z"/>
<path style="fill:#9a455d; stroke:none;" d="M213 362L214 363L213 362M229 362L230 363L229 362z"/>
<path style="fill:#bba1a9; stroke:none;" d="M230 362L230 363L234 363L230 362z"/>
<path style="fill:#9a455d; stroke:none;" d="M234 362L235 363L234 362z"/>
<path style="fill:#454545; stroke:none;" d="M235.667 362.333L236.333 362.667L235.667 362.333M249 362L250 363L249 362M117 363L118 364L117 363z"/>
<path style="fill:#bba1a9; stroke:none;" d="M152 363L153 364L152 363z"/>
<path style="fill:#9a455d; stroke:none;" d="M169 363L170 364L169 363z"/>
<path style="fill:#bba1a9; stroke:none;" d="M213 363L218 368L213 363z"/>
<path style="fill:#454545; stroke:none;" d="M214 363L215 364L214 363M231 363L232 364L231 363z"/>
<path style="fill:#9a455d; stroke:none;" d="M249 363L250 364L249 363z"/>
<path style="fill:#bba1a9; stroke:none;" d="M151 364L152 365L151 364z"/>
<path style="fill:#454545; stroke:none;" d="M170 364L172 366L170 364M215 364L216 365L215 364M248 364L243 368L243 369L248 364z"/>
<path style="fill:#bba1a9; stroke:none;" d="M249 364L250 365L249 364M262.333 364.667L262.667 365.333L262.333 364.667M118 365L122 369L118 365z"/>
<path style="fill:#454545; stroke:none;" d="M119 365L120 366L119 365M145 368L145 369L151 366L145 368z"/>
<path style="fill:#bba1a9; stroke:none;" d="M170 365L171 366L170 365M204 365L205 366L204 365z"/>
<path style="fill:#454545; stroke:none;" d="M216 365L217 366L216 365z"/>
<path style="fill:#bba1a9; stroke:none;" d="M248 365L249 366L248 365z"/>
<path style="fill:#454545; stroke:none;" d="M120 366L121 367L120 366z"/>
<path style="fill:#9a455d; stroke:none;" d="M149 366L150 367L149 366z"/>
<path style="fill:#bba1a9; stroke:none;" d="M150 366L151 367L150 366M171 366L171 367L180 371L180 370L171 366z"/>
<path style="fill:#454545; stroke:none;" d="M173 366L174 367L173 366M201 366L199 369L201 366z"/>
<path style="fill:#9a455d; stroke:none;" d="M202 366L203 367L202 366z"/>
<path style="fill:#bba1a9; stroke:none;" d="M203 366L204 367L203 366z"/>
<path style="fill:#454545; stroke:none;" d="M217 366L218 367L217 366z"/>
<path style="fill:#bba1a9; stroke:none;" d="M247 366L248 367L247 366M263 366L263 368L265 368L263 366z"/>
<path style="fill:#454545; stroke:none;" d="M121 367L122 368L121 367z"/>
<path style="fill:#bba1a9; stroke:none;" d="M148.667 367.333L149.333 367.667L148.667 367.333z"/>
<path style="fill:#454545; stroke:none;" d="M174 367L175 368L174 367z"/>
<path style="fill:#9a455d; stroke:none;" d="M201 367L202 368L201 367z"/>
<path style="fill:#454545; stroke:none;" d="M218 367L219 368L218 367z"/>
<path style="fill:#bba1a9; stroke:none;" d="M246 367L247 368L246 367z"/>
<path style="fill:#9a455d; stroke:none;" d="M122 368L123 369L122 368z"/>
<path style="fill:#454545; stroke:none;" d="M123 368L124 369L123 368z"/>
<path style="fill:#bba1a9; stroke:none;" d="M147 368L148 369L147 368z"/>
<path style="fill:#9a455d; stroke:none;" d="M175 368L176 369L175 368z"/>
<path style="fill:#bba1a9; stroke:none;" d="M200 368L201 369L200 368M219 368L220 369L219 368M244 368L245 369L244 368M265 368L266 369L265 368M123 369L123 370L127 371L127 370L123 369z"/>
<path style="fill:#454545; stroke:none;" d="M125.667 369.333L126.333 369.667L125.667 369.333M143 369L144 370L143 369z"/>
<path style="fill:#9a455d; stroke:none;" d="M144 369L145 370L144 369z"/>
<path style="fill:#bba1a9; stroke:none;" d="M145.667 369.333L146.333 369.667L145.667 369.333z"/>
<path style="fill:#454545; stroke:none;" d="M178.667 369.333L179.333 369.667L178.667 369.333M181 370L181 371L197 370L181 370z"/>
<path style="fill:#bba1a9; stroke:none;" d="M195 370L195 371L200 370L195 370M220 369L220 370L224 371L224 370L220 369z"/>
<path style="fill:#454545; stroke:none;" d="M222.667 369.333L223.333 369.667L222.667 369.333M240.667 369.333L241.333 369.667L240.667 369.333z"/>
<path style="fill:#bba1a9; stroke:none;" d="M242.667 369.333L243.333 369.667L242.667 369.333M266 369L267 370L266 369z"/>
<path style="fill:#9a455d; stroke:none;" d="M282 369L281 371L282 369M127 370L128 371L127 370z"/>
<path style="fill:#454545; stroke:none;" d="M128 370L128 371L142 371L128 370z"/>
<path style="fill:#bba1a9; stroke:none;" d="M142 370L142 371L145 371L142 370z"/>
<path style="fill:#9a455d; stroke:none;" d="M180 370L181 371L180 370M224 370L225 371L224 370z"/>
<path style="fill:#454545; stroke:none;" d="M225 370L225 371L239 371L225 370z"/>
<path style="fill:#9a455d; stroke:none;" d="M239 370L240 371L239 370z"/>
<path style="fill:#bba1a9; stroke:none;" d="M240.667 370.333L241.333 370.667L240.667 370.333M267.667 370.333L268.333 370.667L267.667 370.333M282 370L283 371L282 370M129 371L129 372L133 372L129 371z"/>
<path style="fill:#9a455d; stroke:none;" d="M133 371L133 372L137 372L133 371z"/>
<path style="fill:#bba1a9; stroke:none;" d="M137 371L137 372L141 372L137 371M182 371L182 372L186 372L182 371z"/>
<path style="fill:#9a455d; stroke:none;" d="M186 371L186 372L189 372L186 371z"/>
<path style="fill:#bba1a9; stroke:none;" d="M189 371L189 372L193 372L189 371M226 371L226 372L230 372L226 371z"/>
<path style="fill:#9a455d; stroke:none;" d="M230 371L230 372L233 372L230 371z"/>
<path style="fill:#bba1a9; stroke:none;" d="M233 371L233 372L238 372L233 371M270 371L270 372L274 372L270 371z"/>
<path style="fill:#9a455d; stroke:none;" d="M274 371L274 372L277 372L274 371z"/>
<path style="fill:#bba1a9; stroke:none;" d="M277 371L277 372L280 372L277 371z"/>
</svg>
