<?xml version="1.0" encoding="utf-8"?>
<!DOCTYPE svg PUBLIC "-//W3C//DTD SVG 20010904//EN" "http://www.w3.org/TR/2001/REC-SVG-20010904/DTD/svg10.dtd">
<svg version="1.0" xmlns="http://www.w3.org/2000/svg" width="200pt" height="200pt" viewBox="0 0 200 200" style="background-color:#E51E25" preserveAspectRatio="xMidYMid meet">
<g fill="#FFE0DDFF" stroke="#FFE0DDFF">
<path d="M 53.250 68.599 C 52.289 69.035 52.000 76.298 52.000 99.976 C 52.000 133.719 51.680 132.000 57.959 132.000 C 61.827 132.000 63.182 129.926 62.988 124.305 C 62.897 121.662 62.862 118.239 62.911 116.699 L 63.000 113.897 71.250 114.067 C 79.333 114.234 88.000 112.710 88.000 111.122 C 88.000 110.681 89.059 109.839 90.353 109.249 C 91.656 108.655 94.050 105.573 95.721 102.339 C 102.005 90.170 97.526 76.840 85.000 70.440 C 82.266 69.043 78.545 68.584 68.000 68.342 C 60.575 68.171 53.938 68.287 53.250 68.599 M 79.578 79.126 C 79.886 79.625 80.557 79.774 81.069 79.457 C 81.581 79.141 82.000 79.359 82.000 79.941 C 82.000 80.523 82.623 81.000 83.385 81.000 C 85.452 81.000 87.986 85.467 88.640 90.262 C 88.958 92.593 89.732 95.175 90.359 96.000 C 91.359 97.314 91.277 97.325 89.699 96.086 C 88.108 94.835 87.841 94.893 87.398 96.586 C 87.123 97.638 86.933 98.922 86.976 99.437 C 87.020 99.953 86.377 100.474 85.547 100.596 C 84.718 100.718 83.351 101.507 82.508 102.349 C 80.685 104.172 74.243 105.271 68.000 104.823 L 63.500 104.500 63.218 92.079 C 63.007 82.812 63.261 79.452 64.218 78.848 C 65.950 77.755 78.875 77.988 79.578 79.126 M 56.299 113.664 C 55.820 114.912 56.015 115.114 57.080 114.472 C 58.292 113.741 58.299 113.864 57.128 115.308 C 56.276 116.358 56.169 117.000 56.846 117.000 C 57.446 117.000 57.700 117.617 57.411 118.371 C 57.122 119.125 57.586 120.011 58.443 120.340 C 60.402 121.092 60.495 124.000 58.559 124.000 C 56.628 124.000 56.347 123.374 55.520 117.250 C 55.051 113.767 55.170 112.000 55.875 112.000 C 56.459 112.000 56.650 112.749 56.299 113.664 M 57.030 80.000 C 56.242 80.000 55.962 83.068 56.117 89.997 C 56.239 95.495 56.038 100.295 55.670 100.663 C 55.301 101.032 55.000 96.623 55.000 90.867 C 55.000 83.883 55.412 79.988 56.238 79.163 C 57.028 78.372 57.600 78.300 57.821 78.963 C 58.011 79.533 57.655 80.000 57.030 80.000 M 86.500 106.014 C 86.500 106.971 85.431 107.545 83.500 107.625 C 79.256 107.803 78.335 106.936 81.115 105.380 C 84.047 103.738 86.500 104.027 86.500 106.014 M 83.781 73.844 C 84.710 74.433 84.797 75.322 84.095 77.078 C 83.156 79.427 82.899 79.370 82.614 76.750 C 82.525 75.934 81.092 75.586 78.489 75.749 L 74.500 75.998 78.000 74.618 C 82.459 72.861 82.272 72.886 83.781 73.844 M 93.923 86.923 C 91.562 89.284 91.013 89.477 90.495 88.126 C 89.765 86.223 93.440 82.848 95.416 83.606 C 96.349 83.964 95.913 84.933 93.923 86.923 M 60.847 74.564 C 61.773 76.597 61.755 76.967 60.759 76.351 C 60.068 75.924 58.827 75.522 58.001 75.458 C 57.176 75.394 56.838 75.265 57.250 75.171 C 57.663 75.077 58.000 74.325 58.000 73.500 C 58.000 71.155 59.559 71.738 60.847 74.564 M 91.823 79.344 C 92.202 81.284 90.908 81.508 89.200 79.800 C 87.493 78.093 87.715 77.135 89.750 77.433 C 90.713 77.574 91.645 78.434 91.823 79.344 "/></g>
<g fill="#FFE0DDFF" stroke="#FFE0DDFF">
<path d="M 116.885 87.380 C 107.536 90.721 102.001 98.163 101.461 108.120 C 100.776 120.769 109.334 130.404 122.378 131.667 C 126.484 132.064 128.432 131.683 132.201 129.742 C 136.886 127.330 136.904 127.329 137.201 129.411 C 137.454 131.176 138.198 131.500 142.000 131.500 L 146.500 131.500 146.769 109.250 L 147.038 87.000 144.019 87.000 C 142.251 87.000 141.104 87.481 141.250 88.160 C 141.440 89.041 141.305 89.041 140.691 88.160 C 139.530 86.496 137.000 86.728 137.000 88.500 C 137.000 89.325 136.550 90.000 136.000 90.000 C 135.450 90.000 135.000 89.621 135.000 89.158 C 135.000 87.973 127.927 85.991 123.884 86.044 C 122.023 86.068 118.873 86.669 116.885 87.380 M 133.189 99.999 C 136.644 103.412 136.865 103.998 136.666 109.209 C 136.480 114.097 136.047 115.153 133.110 117.897 C 129.099 121.644 127.201 122.182 120.000 121.611 C 116.975 121.371 115.163 121.135 115.972 121.087 C 117.075 121.022 116.896 120.452 115.259 118.814 L 113.073 116.629 112.100 119.064 C 111.444 120.705 111.106 120.948 111.063 119.809 C 111.029 118.879 111.410 117.865 111.911 117.555 C 112.870 116.962 112.774 115.582 111.584 112.853 C 111.189 111.948 111.049 109.923 111.274 108.353 C 112.448 100.161 117.252 95.904 125.000 96.189 C 128.720 96.326 130.139 96.986 133.189 99.999 M 143.787 111.750 C 143.589 112.713 142.708 113.380 141.828 113.232 C 140.948 113.085 139.993 113.576 139.706 114.323 C 138.939 116.321 140.560 118.383 142.356 117.694 C 143.676 117.187 143.743 117.469 142.796 119.548 C 141.525 122.337 140.000 122.793 140.000 120.383 C 140.000 119.259 139.391 118.926 138.001 119.289 C 136.902 119.577 135.782 119.456 135.512 119.020 C 135.243 118.584 135.963 117.982 137.112 117.681 C 138.261 117.380 138.925 116.688 138.588 116.142 C 138.251 115.596 138.503 113.991 139.148 112.575 C 140.498 109.612 144.368 108.924 143.787 111.750 M 112.441 92.433 C 109.754 94.416 111.810 96.707 114.827 95.093 C 115.950 94.492 117.673 94.000 118.657 94.000 C 120.166 94.000 120.088 94.250 118.155 95.604 C 116.896 96.486 114.771 96.998 113.433 96.742 C 111.873 96.444 111.000 96.740 111.000 97.567 C 111.000 98.277 109.350 100.577 107.333 102.679 C 105.316 104.780 103.992 105.938 104.392 105.250 C 104.818 104.517 104.577 103.998 103.809 103.996 C 103.089 103.994 103.978 103.091 105.785 101.990 C 108.959 100.055 111.261 96.339 110.296 94.706 C 109.702 93.698 111.898 91.000 113.314 91.000 C 113.901 91.000 113.509 91.645 112.441 92.433 M 132.500 90.000 C 132.138 90.585 133.176 91.000 135.000 91.000 C 136.862 91.000 137.864 91.410 137.488 92.019 C 137.142 92.579 138.353 93.686 140.179 94.479 L 143.500 95.922 140.143 95.961 C 137.579 95.991 136.922 96.354 137.362 97.500 C 137.678 98.325 137.474 99.000 136.909 99.000 C 136.321 99.000 136.088 97.679 136.365 95.922 C 136.747 93.500 136.535 92.964 135.373 93.410 C 134.542 93.729 134.163 93.545 134.507 92.989 C 134.843 92.445 134.384 92.000 133.488 92.000 C 132.591 92.000 131.182 91.325 130.357 90.500 C 129.024 89.167 129.094 89.000 130.988 89.000 C 132.159 89.000 132.840 89.450 132.500 90.000 M 135.000 122.015 C 133.742 122.841 133.722 123.143 134.878 123.888 C 135.636 124.377 135.947 125.277 135.569 125.888 C 134.544 127.547 132.974 127.231 133.638 125.500 C 134.301 123.774 132.460 123.446 131.434 125.107 C 130.952 125.886 130.514 125.831 129.951 124.921 C 129.303 123.872 128.841 123.887 127.500 125.000 C 126.098 126.164 125.716 126.158 124.977 124.963 C 124.300 123.868 124.870 123.506 127.539 123.335 C 129.427 123.214 131.765 122.653 132.736 122.088 C 134.995 120.773 136.990 120.709 135.000 122.015 M 140.608 124.750 C 142.255 126.920 142.410 130.303 140.837 129.779 C 140.198 129.566 139.566 128.741 139.434 127.946 C 139.302 127.151 138.877 125.713 138.490 124.750 C 138.103 123.788 138.122 123.000 138.533 123.000 C 138.943 123.000 139.877 123.788 140.608 124.750 M 104.985 111.036 C 104.997 109.819 105.276 109.848 106.637 111.208 C 107.782 112.353 108.008 113.394 107.390 114.672 C 106.624 116.257 106.539 116.196 106.749 114.207 C 106.924 112.557 106.532 111.996 105.350 112.207 C 104.446 112.368 103.514 111.825 103.278 111.000 C 102.896 109.667 102.966 109.667 103.909 111.000 C 104.824 112.295 104.971 112.300 104.985 111.036 M 127.755 90.250 C 127.529 90.938 126.275 91.656 124.970 91.846 C 122.897 92.148 122.764 91.990 123.920 90.596 C 125.486 88.709 128.348 88.451 127.755 90.250 "/></g>
<g fill="#EEEEE6FF" stroke="#EEEEE6FF">
<path d="M 139.148 112.575 C 138.503 113.991 138.251 115.596 138.588 116.142 C 138.925 116.688 138.261 117.380 137.112 117.681 C 135.963 117.982 135.243 118.584 135.512 119.020 C 135.782 119.456 136.902 119.577 138.001 119.289 C 139.391 118.926 140.000 119.259 140.000 120.383 C 140.000 122.793 141.525 122.337 142.796 119.548 C 143.743 117.469 143.676 117.187 142.356 117.694 C 140.560 118.383 138.939 116.321 139.706 114.323 C 139.993 113.576 140.948 113.085 141.828 113.232 C 142.708 113.380 143.589 112.713 143.787 111.750 C 144.368 108.924 140.498 109.612 139.148 112.575 "/></g>
<g fill="#EEEEE6FF" stroke="#EEEEE6FF">
<path d="M 111.036 92.456 C 110.372 93.257 110.039 94.270 110.296 94.706 C 111.261 96.339 108.959 100.055 105.785 101.990 C 103.978 103.091 103.089 103.994 103.809 103.996 C 104.577 103.998 104.818 104.517 104.392 105.250 C 103.992 105.938 105.316 104.780 107.333 102.679 C 109.350 100.577 111.000 98.277 111.000 97.567 C 111.000 96.740 111.873 96.444 113.433 96.742 C 114.771 96.998 116.896 96.486 118.155 95.604 C 120.088 94.250 120.166 94.000 118.657 94.000 C 117.673 94.000 115.950 94.492 114.827 95.093 C 111.810 96.707 109.754 94.416 112.441 92.433 C 113.509 91.645 113.901 91.000 113.314 91.000 C 112.726 91.000 111.701 91.655 111.036 92.456 "/></g>
<g fill="#EEEEE6FF" stroke="#EEEEE6FF">
<path d="M 130.357 90.500 C 131.182 91.325 132.591 92.000 133.488 92.000 C 134.384 92.000 134.843 92.445 134.507 92.989 C 134.163 93.545 134.542 93.729 135.373 93.410 C 136.535 92.964 136.747 93.500 136.365 95.922 C 136.088 97.679 136.321 99.000 136.909 99.000 C 137.474 99.000 137.678 98.325 137.362 97.500 C 136.922 96.354 137.579 95.991 140.143 95.961 L 143.500 95.922 140.179 94.479 C 138.353 93.686 137.142 92.579 137.488 92.019 C 137.864 91.410 136.862 91.000 135.000 91.000 C 133.176 91.000 132.138 90.585 132.500 90.000 C 132.840 89.450 132.159 89.000 130.988 89.000 C 129.094 89.000 129.024 89.167 130.357 90.500 "/></g>
<g fill="#EEEEE6FF" stroke="#EEEEE6FF">
<path d="M 132.736 122.088 C 131.765 122.653 129.427 123.214 127.539 123.335 C 124.870 123.506 124.300 123.868 124.977 124.963 C 125.716 126.158 126.098 126.164 127.500 125.000 C 128.841 123.887 129.303 123.872 129.951 124.921 C 130.514 125.831 130.952 125.886 131.434 125.107 C 132.460 123.446 134.301 123.774 133.638 125.500 C 132.974 127.231 134.544 127.547 135.569 125.888 C 135.947 125.277 135.636 124.377 134.878 123.888 C 133.722 123.143 133.742 122.841 135.000 122.015 C 136.990 120.709 134.995 120.773 132.736 122.088 "/></g>
<g fill="#EEEEE6FF" stroke="#EEEEE6FF">
<path d="M 55.520 117.250 C 56.347 123.374 56.628 124.000 58.559 124.000 C 60.495 124.000 60.402 121.092 58.443 120.340 C 57.586 120.011 57.122 119.125 57.411 118.371 C 57.700 117.617 57.446 117.000 56.846 117.000 C 56.169 117.000 56.276 116.358 57.128 115.308 C 58.299 113.864 58.292 113.741 57.080 114.472 C 56.015 115.114 55.820 114.912 56.299 113.664 C 56.650 112.749 56.459 112.000 55.875 112.000 C 55.170 112.000 55.051 113.767 55.520 117.250 "/></g>
<g fill="#EEEEE6FF" stroke="#EEEEE6FF">
<path d="M 56.238 79.163 C 55.412 79.988 55.000 83.883 55.000 90.867 C 55.000 96.623 55.301 101.032 55.670 100.663 C 56.038 100.295 56.239 95.495 56.117 89.997 C 55.962 83.068 56.242 80.000 57.030 80.000 C 57.655 80.000 58.011 79.533 57.821 78.963 C 57.600 78.300 57.028 78.372 56.238 79.163 "/></g>
<g fill="#B63C40FF" stroke="#B63C40FF">
<path d="M 63.567 79.767 C 63.255 80.078 63.000 85.358 63.000 91.500 C 63.000 97.642 63.255 102.922 63.567 103.233 C 63.878 103.545 64.133 98.265 64.133 91.500 C 64.133 84.735 63.878 79.455 63.567 79.767 "/></g>
<g fill="#EEEEE6FF" stroke="#EEEEE6FF">
<path d="M 81.115 105.380 C 78.335 106.936 79.256 107.803 83.500 107.625 C 85.431 107.545 86.500 106.971 86.500 106.014 C 86.500 104.027 84.047 103.738 81.115 105.380 "/></g>
<g fill="#EEEEE6FF" stroke="#EEEEE6FF">
<path d="M 78.000 74.618 L 74.500 75.998 78.489 75.749 C 81.092 75.586 82.525 75.934 82.614 76.750 C 82.899 79.370 83.156 79.427 84.095 77.078 C 84.797 75.322 84.710 74.433 83.781 73.844 C 82.272 72.886 82.459 72.861 78.000 74.618 "/></g>
<g fill="#EEEEE6FF" stroke="#EEEEE6FF">
<path d="M 91.988 84.809 C 90.695 85.855 90.117 87.141 90.495 88.126 C 91.013 89.477 91.562 89.284 93.923 86.923 C 97.155 83.691 95.543 81.930 91.988 84.809 "/></g>
<g fill="#EEEEE6FF" stroke="#EEEEE6FF">
<path d="M 138.490 124.750 C 138.877 125.713 139.302 127.151 139.434 127.946 C 139.795 130.111 142.005 130.449 141.968 128.333 C 141.934 126.369 139.764 123.000 138.533 123.000 C 138.122 123.000 138.103 123.788 138.490 124.750 "/></g>
<g fill="#B63C40FF" stroke="#B63C40FF">
<path d="M 63.667 115.667 C 63.300 116.033 63.007 116.821 63.015 117.417 C 63.025 118.099 63.312 118.057 63.791 117.304 C 64.210 116.645 67.465 115.945 71.026 115.746 L 77.500 115.385 70.917 115.193 C 67.296 115.087 64.033 115.300 63.667 115.667 "/></g>
<g fill="#EEEEE6FF" stroke="#EEEEE6FF">
<path d="M 58.000 73.500 C 58.000 74.325 57.663 75.077 57.250 75.171 C 56.838 75.265 57.176 75.394 58.001 75.458 C 58.827 75.522 60.068 75.924 60.759 76.351 C 61.755 76.967 61.773 76.597 60.847 74.564 C 59.559 71.738 58.000 71.155 58.000 73.500 "/></g>
<g fill="#EEEEE6FF" stroke="#EEEEE6FF">
<path d="M 103.278 111.000 C 103.514 111.825 104.446 112.368 105.350 112.207 C 106.532 111.996 106.924 112.557 106.749 114.207 C 106.539 116.196 106.624 116.257 107.390 114.672 C 108.008 113.394 107.782 112.353 106.637 111.208 C 105.276 109.848 104.997 109.819 104.985 111.036 C 104.971 112.300 104.824 112.295 103.909 111.000 C 102.966 109.667 102.896 109.667 103.278 111.000 "/></g>
<g fill="#EEEEE6FF" stroke="#EEEEE6FF">
<path d="M 123.920 90.596 C 122.764 91.990 122.897 92.148 124.970 91.846 C 126.275 91.656 127.529 90.938 127.755 90.250 C 128.348 88.451 125.486 88.709 123.920 90.596 "/></g>
<g fill="#EEEEE6FF" stroke="#EEEEE6FF">
<path d="M 88.000 77.888 C 88.000 78.886 90.223 81.000 91.273 81.000 C 92.917 81.000 91.503 77.689 89.750 77.433 C 88.788 77.292 88.000 77.497 88.000 77.888 "/></g>
</svg>
