<?xml version="1.0" standalone="no"?>
<!DOCTYPE svg PUBLIC "-//W3C//DTD SVG 20010904//EN"
 "http://www.w3.org/TR/2001/REC-SVG-20010904/DTD/svg10.dtd">
<svg version="1.0" xmlns="http://www.w3.org/2000/svg"
 width="200.000000pt" height="200.000000pt" viewBox="0 0 200.000000 200.000000"
 preserveAspectRatio="xMidYMid meet">
<metadata>
Created by potrace 1.16, written by Peter Selinger 2001-2019
</metadata>
<g transform="translate(0.000000,200.000000) scale(0.100000,-0.100000)"
fill="#000000" stroke="none">
<path d="M0 1000 l0 -1000 1000 0 1000 0 0 1000 0 1000 -1000 0 -1000 0 0
-1000z m844 306 c48 -20 107 -75 127 -121 22 -48 25 -142 6 -188 -22 -52 -68
-98 -122 -123 -40 -19 -67 -24 -137 -24 l-88 0 0 -85 0 -85 -55 0 -55 0 0 320
0 320 145 0 c101 0 156 -4 179 -14z m489 -181 c37 -18 37 -18 37 0 0 12 13 15
55 15 l55 0 0 -230 0 -230 -55 0 c-49 0 -55 2 -55 20 0 19 -2 19 -22 6 -104
-66 -257 -20 -316 96 -49 95 -24 222 56 288 69 58 171 72 245 35z"/>
<path d="M630 1085 l0 -125 75 0 c116 0 175 42 175 124 -1 90 -49 126 -167
126 l-83 0 0 -125z"/>
<path d="M1203 1029 c-51 -15 -83 -61 -83 -121 0 -73 45 -118 118 -118 63 0
107 33 122 91 24 90 -65 174 -157 148z"/>
</g>
</svg>
