<?xml version="1.0" standalone="yes"?>
<svg xmlns="http://www.w3.org/2000/svg" width="2096" height="1596">
<path style="fill:#ffffff; stroke:none;" d="M0 0L0 1596L2096 1596L2096 0L0 0z"/>
<path style="fill:#d94545; stroke:none;" d="M617 619C615.862 624.673 610.182 632.36 605 635C603.597 645.529 594.51 655.123 593.13 666.089C589.388 695.822 585.902 728.157 593.459 757.714C600.062 783.539 613.416 808.21 628.005 830.05C636.507 842.776 646.528 853.354 656.694 864.709C660.322 868.763 663.294 875.018 669 876C671.963 884.245 689.082 894.386 696.586 898.92C719.313 912.65 737.997 934.602 766 925C766.809 918.599 768.584 910.483 765.401 904.468C760.718 895.615 743.99 891.346 735.589 886.41C731.68 884.113 728.544 880.722 724 880C722.284 874.795 710.466 867.796 705 867C702.442 858.184 687.417 853.693 681.713 846.607C672.842 835.586 662.865 825.298 654.736 813.681C645.161 799.997 638.957 784.85 630.551 770.741C627.777 766.084 623.814 756.4 623.139 751C622.566 746.416 623.273 739.543 618 738L618 687L621 687L629 656L636 652C636.694 644.37 645.461 636.213 653 635C655.747 629.967 661.532 628.914 666.714 627.549C677.252 624.774 687.514 624.995 697.83 629.032C706.177 632.297 713.862 639.724 723 640L734.633 653.326L751 674C760.171 669.928 769.551 655.4 777.468 648.389C799.655 628.737 829.925 618.977 856.847 635.213C863.274 639.089 871.505 648.339 874.977 655.06C877.203 659.37 875.694 666.448 881 668C882.259 682.435 886.892 697.605 886.892 712C886.892 727.911 872.786 768.015 903.96 762.111C907.716 761.4 909.772 758.72 913 757C913 727.134 920.322 694.616 912.446 665.089C910.181 656.599 905.595 650.375 901.704 642.946C896.29 632.606 890.839 614.578 877 613C875.247 604.594 859.519 599.517 852.036 597.451C834.816 592.698 812.463 591.906 795.428 598.8C787.386 602.055 780.394 608.75 772 611L772 614C768.172 614.304 766.827 615.205 766 619L753.135 624.65L724 607C722.1 601.273 709.611 598.872 704.169 596.831C682.328 588.637 658.049 592.864 638.155 604.07C631.102 608.043 624.396 616.749 617 619M171 675L171 712L239 712C248.006 712 261.327 709.516 269.826 712.563C288.67 719.319 286.71 745.966 271.522 754.945C263.856 759.477 250.622 757 242 757C218.253 757 194.708 755.129 171 757L171 867L208 867L204 790L252 790C252.975 797.666 256.81 813.538 265 816C265.897 828.212 273.906 842.135 279.902 852.711C281.723 855.923 283.728 861.804 287.274 863.397C294.966 866.854 309.579 864 318 864C313.323 849.929 306.18 833.25 298.705 820.376C294.265 812.729 283.821 800.356 285.26 790.465C286.526 781.768 300.415 777.077 304.702 769.871C317.321 748.663 318.897 703.002 298.968 685.549C288.211 676.127 268.462 675 255 675L171 675M1378 708C1376.7 713.589 1373.3 718.21 1372.43 724.004C1369.45 743.872 1372 765.907 1372 786C1372 807.331 1370.96 825.578 1384.03 843.737C1398.2 863.412 1420.18 864 1442 864C1472.18 864 1503.49 865.342 1518.87 833.335C1529.77 810.654 1525 780.534 1525 756C1525 743.734 1526.3 730.913 1522.07 719.17C1520.14 713.821 1518.34 707.983 1514.82 703.414C1510.82 698.245 1505.51 695.46 1503 689C1496.09 687.131 1489.97 682.17 1482.91 680.414C1475.61 678.598 1466.5 680 1459 680C1441.08 680 1417.72 675.956 1401.46 684.839C1391.7 690.174 1386.59 702.765 1378 708M1693 860C1695.58 854.39 1702.81 851.101 1706.97 846.47C1711.95 840.92 1715.34 831.652 1718.25 824.826C1722.39 815.103 1721 803.3 1721 793C1721 771.711 1725.05 745.612 1719.24 725.015C1708 685.182 1673.67 680 1638 680C1622.08 680 1603.73 680.234 1590.67 691.028C1581.21 698.848 1573.49 708.761 1569.71 720.428C1565.62 733.036 1568 748.901 1568 762C1568 795.538 1560.75 837.556 1593.51 859.026C1608.34 868.744 1629.2 867 1646 867C1655.23 867 1664.73 867.647 1673.83 865.755C1680.43 864.383 1686.39 860.915 1693 860M1902 833L1905.96 808L1905.91 736L1902 712C1897.06 709.062 1895 702.405 1891.49 697.924C1887.09 692.307 1880.51 688.421 1874.41 684.934C1855.15 673.918 1822.8 680 1801 680C1793.36 680 1782.27 677.867 1775.81 682.634C1763.01 692.081 1765 708.038 1765 722L1765 820C1765 833.377 1762.31 850.379 1774.29 859.826C1781.9 865.838 1791.82 864 1801 864C1822.64 864 1855.24 870.105 1874.7 859.791C1881.18 856.358 1887.78 851.252 1892.45 845.561C1895.73 841.55 1897.56 835.646 1902 833M363 681L363 863L392 863L392 787L471 787L471 863L499 863L499 681L471 681L471 757L392 757L392 681L363 681M1018 860C1046.04 867.136 1078.91 863 1108 863C1119.5 863 1134.21 865.578 1144.38 859.022C1154.67 852.389 1156.99 838.178 1157 827L1160 827L1160 805L1157 805L1154.47 782.039L1148.81 768L1154.27 755.961L1157 736L1160 736L1160 723L1157 723C1157 707.685 1151.34 687.262 1134.71 681.549C1128.49 679.413 1119.53 681 1113 681L1066 681C1055.12 681 1027.5 675.993 1019.88 684.978C1017.02 688.351 1018 693.896 1018 698L1018 731L1018 860M1202 681L1202 783C1202 804.04 1199.99 825.744 1207.22 845.871C1208.46 849.314 1211.61 851.513 1213 855L1235.09 866.041L1267 867L1325 867L1325 831L1268 831C1261.58 831 1250.94 833.021 1245.3 829.57C1232.55 821.77 1236 802.67 1236 790L1236 681L1202 681z"/>
<path style="fill:#ffffff; stroke:none;" d="M1048 712L1048 831L1102 831C1109.1 831 1119.17 832.795 1125.81 829.968C1133.84 826.553 1134.31 800.263 1128.3 794.858C1124.76 791.676 1117.37 793 1113 793C1095.5 793 1071.74 797.451 1072 773C1072.34 741.44 1113.45 767.847 1127.66 753.867C1133.94 747.688 1134.26 715.889 1124.7 712.514C1118.05 710.167 1108.02 712 1101 712L1048 712M1494 808L1497 808L1497 735L1494 735C1493.76 726.995 1487.68 716.866 1480.38 713.148C1475.13 710.468 1466.75 712 1461 712C1444.92 712 1421.83 707.42 1408.76 718.508C1399.95 725.991 1401 736.567 1401 747C1401 767.324 1400.66 787.679 1401 808C1401.48 836.158 1437.3 831 1456 831C1463.12 831 1473.11 832.776 1479.71 829.786C1487.55 826.236 1493.75 816.42 1494 808M1797 712L1797 831L1855 830.906L1868 827C1870.16 820.764 1874.48 815.587 1875.74 808.83C1879.21 790.188 1876 767.983 1876 749C1876 737.668 1876.32 722.635 1865.54 715.666C1858.06 710.83 1849.5 712 1841 712L1797 712M1608 831C1629.81 833.776 1655.33 835.83 1677 831C1680.37 825.486 1686.37 823.862 1689.04 816.83C1696.25 797.851 1692 772.175 1692 752C1692 743.049 1691.75 732.122 1686.27 724.478C1674.97 708.721 1649.69 714 1633 714C1627.04 714 1618.88 712.57 1613.29 714.884C1607.37 717.333 1602.12 723.01 1599.15 728.594C1596.04 734.431 1597 741.609 1597 748L1597 787C1597 795.546 1594.78 807.785 1597.88 815.829C1600.03 821.433 1605.51 825.432 1608 831z"/>
<path style="fill:#d94545; stroke:none;" d="M831 778L830 828L799 828C795.049 828 789.087 826.905 785.724 829.434C782 832.233 783 837.934 783 842L783 874C783 878.037 781.734 884.62 785.573 887.312C789.195 889.852 794.833 889 799 889L830 889L830 920L831.179 932.397L842 934L872 934L882.142 931.427L883 919L883 889L914 889L926.397 887.821L928 875L928 841L925.427 828.858L913 828L883 828L883 793L881.972 779.742L869 778L831 778z"/>
</svg>
